<svg xmlns="http://www.w3.org/2000/svg" xmlns:oryx="http://oryx-editor.org" id="oryx_618F2BC1-0AD0-466A-90A8-5913D6CB39C7" width="1049" height="221" xmlns:xlink="http://www.w3.org/1999/xlink" xmlns:svg="http://www.w3.org/2000/svg"><defs/><g stroke="black" font-family="arial,sans-serif" font-size-adjust="none" font-style="normal" font-variant="normal" font-weight="normal" line-heigth="normal" font-size="12"><g class="stencils" transform="translate(-25, -25)"><g class="me"/><g class="children"><g id="svg-panel1"><g class="stencils" transform="translate(50, 50)"><g class="me"><g oryx:minimumSize="40 34" id="oryx_4CB8FD0D-7D21-4040-9953-827EA20EACFF" title="SlotPanel">     <rect id="oryx_4CB8FD0D-7D21-4040-9953-827EA20EACFFinput" oryx:anchors="left top" oryx:resize="vertical horizontal" x="0" y="0" width="999.0000000000001" height="171" stroke="#777777" stroke-width="1" fill="#ffffff"/>   </g></g><g class="background"><g class="cellBg" display="inherit" transform="translate(11, 94)"><rect x="0" y="0" stroke-width="2" stroke="none" fill="#ffffff" pointer-events="all" width="977" height="56"/></g><g class="cellBg" display="inherit" transform="translate(11, 94)"><rect x="0" y="0" stroke-width="2" stroke="none" fill="#ffffff" pointer-events="all" width="977" height="56"/></g><g class="cellBg" display="inherit" transform="translate(11, 94)"><rect x="0" y="0" stroke-width="2" stroke="none" fill="#ffffff" pointer-events="all" width="977" height="56"/></g><g class="cellBg" display="inherit" transform="translate(11, 94)"><rect x="0" y="0" stroke-width="2" stroke="none" fill="#ffffff" pointer-events="all" width="977" height="56"/></g><g class="cellBg" display="inherit" transform="translate(11, 94)"><rect x="0" y="0" stroke-width="2" stroke="none" fill="#ffffff" pointer-events="all" width="977" height="56"/></g><g class="cellBg" display="inherit" transform="translate(11, 94)"><rect x="0" y="0" stroke-width="2" stroke="none" fill="#ffffff" pointer-events="all" width="977" height="56"/></g><g class="cellBg" display="inherit" transform="translate(503, 21)"><rect x="0" y="0" stroke-width="2" stroke="none" fill="#ffffff" pointer-events="all" width="485" height="56"/></g><g class="cellBg" display="inherit" transform="translate(503, 21)"><rect x="0" y="0" stroke-width="2" stroke="none" fill="#ffffff" pointer-events="all" width="485" height="56"/></g><g class="cellBg" display="inherit" transform="translate(503, 21)"><rect x="0" y="0" stroke-width="2" stroke="none" fill="#ffffff" pointer-events="all" width="485" height="56"/></g><g class="cellBg" display="inherit" transform="translate(11, 21)"><rect x="0" y="0" stroke-width="2" stroke="none" fill="#ffffff" pointer-events="all" width="485" height="56"/></g><g class="cellBg" display="inherit" transform="translate(11, 21)"><rect x="0" y="0" stroke-width="2" stroke="none" fill="#ffffff" pointer-events="all" width="485" height="56"/></g><g class="cellBg" display="inherit" transform="translate(11, 21)"><rect x="0" y="0" stroke-width="2" stroke="none" fill="#ffffff" pointer-events="all" width="485" height="56"/></g><g class="cellBg" display="inherit" transform="translate(11, 21)"><rect x="0" y="0" stroke-width="2" stroke="none" fill="#ffffff" pointer-events="all" width="485" height="56"/></g><g class="cellBg" display="inherit" transform="translate(11, 21)"><rect x="0" y="0" stroke-width="2" stroke="none" fill="#ffffff" pointer-events="all" width="485" height="56"/></g><g class="cellBg" display="inherit" transform="translate(11, 21)"><rect x="0" y="0" stroke-width="2" stroke="none" fill="#ffffff" pointer-events="all" width="485" height="56"/></g><g class="cellBg" display="inherit" transform="translate(503, 21)"><rect x="0" y="0" stroke-width="2" stroke="none" fill="#ffffff" pointer-events="all" width="485" height="56"/></g><g class="cellBg" display="inherit" transform="translate(503, 21)"><rect x="0" y="0" stroke-width="2" stroke="none" fill="#ffffff" pointer-events="all" width="485" height="56"/></g><g class="cellBg" display="inherit" transform="translate(503, 21)"><rect x="0" y="0" stroke-width="2" stroke="none" fill="#ffffff" pointer-events="all" width="485" height="56"/></g><g class="cellBg" display="inherit" transform="translate(11, 94)"><rect x="0" y="0" stroke-width="2" stroke="none" fill="#ffffff" pointer-events="all" width="977" height="56"/></g><g class="cellBg" display="inherit" transform="translate(11, 94)"><rect x="0" y="0" stroke-width="2" stroke="none" fill="#ffffff" pointer-events="all" width="977" height="56"/></g><g class="cellBg" display="inherit" transform="translate(11, 94)"><rect x="0" y="0" stroke-width="2" stroke="none" fill="#ffffff" pointer-events="all" width="977" height="56"/></g><g class="cellBg" display="inherit" transform="translate(11, 94)"><rect x="0" y="0" stroke-width="2" stroke="none" fill="#ffffff" pointer-events="all" width="977" height="56"/></g><g class="cellBg" display="inherit" transform="translate(11, 94)"><rect x="0" y="0" stroke-width="2" stroke="none" fill="#ffffff" pointer-events="all" width="977" height="56"/></g><g class="cellBg" display="inherit" transform="translate(11, 94)"><rect x="0" y="0" stroke-width="2" stroke="none" fill="#ffffff" pointer-events="all" width="977" height="56"/></g><g class="columnBackground split" display="none"><rect x="0" y="0" stroke="none" fill="#ffffff" pointer-events="none"/></g></g><g class="gridline"><g class="panelgridline" display="inherit"><path stroke-width="1" stroke="silver" fill="none" stroke-dasharray="4,2" pointer-events="none" d="M0 21 L 999.0000000000001 21"/></g><g class="panelgridline" display="inherit"><path stroke-width="1" stroke="silver" fill="none" stroke-dasharray="4,2" pointer-events="none" d="M0 77 L 999.0000000000001 77"/></g><g class="panelgridline" display="inherit"><path stroke-width="1" stroke="silver" fill="none" stroke-dasharray="4,2" pointer-events="none" d="M11 0 L 11 171"/></g><g class="panelgridline" display="inherit"><path stroke-width="1" stroke="silver" fill="none" stroke-dasharray="4,2" pointer-events="none" d="M86 0 L 86 171"/></g><g class="panelgridline" display="inherit"><path stroke-width="1" stroke="silver" fill="none" stroke-dasharray="4,2" pointer-events="none" d="M93 0 L 93 171"/></g><g class="panelgridline" display="inherit"><path stroke-width="1" stroke="silver" fill="none" stroke-dasharray="4,2" pointer-events="none" d="M168 0 L 168 171"/></g><g class="panelgridline" display="inherit"><path stroke-width="1" stroke="silver" fill="none" stroke-dasharray="4,2" pointer-events="none" d="M175 0 L 175 171"/></g><g class="panelgridline" display="inherit"><path stroke-width="1" stroke="silver" fill="none" stroke-dasharray="4,2" pointer-events="none" d="M250 0 L 250 171"/></g><g class="panelgridline" display="inherit"><path stroke-width="1" stroke="silver" fill="none" stroke-dasharray="4,2" pointer-events="none" d="M257 0 L 257 171"/></g><g class="panelgridline" display="inherit"><path stroke-width="1" stroke="silver" fill="none" stroke-dasharray="4,2" pointer-events="none" d="M332 0 L 332 171"/></g><g class="panelgridline" display="inherit"><path stroke-width="1" stroke="silver" fill="none" stroke-dasharray="4,2" pointer-events="none" d="M339 0 L 339 171"/></g><g class="panelgridline" display="inherit"><path stroke-width="1" stroke="silver" fill="none" stroke-dasharray="4,2" pointer-events="none" d="M414 0 L 414 171"/></g><g class="panelgridline" display="inherit"><path stroke-width="1" stroke="silver" fill="none" stroke-dasharray="4,2" pointer-events="none" d="M421 0 L 421 171"/></g><g class="panelgridline" display="inherit"><path stroke-width="1" stroke="silver" fill="none" stroke-dasharray="4,2" pointer-events="none" d="M496 0 L 496 171"/></g><g class="panelgridline" display="inherit"><path stroke-width="1" stroke="silver" fill="none" stroke-dasharray="4,2" pointer-events="none" d="M503 0 L 503 171"/></g><g class="panelgridline" display="inherit"><path stroke-width="1" stroke="silver" fill="none" stroke-dasharray="4,2" pointer-events="none" d="M578 0 L 578 171"/></g><g class="panelgridline" display="inherit"><path stroke-width="1" stroke="silver" fill="none" stroke-dasharray="4,2" pointer-events="none" d="M585 0 L 585 171"/></g><g class="panelgridline" display="inherit"><path stroke-width="1" stroke="silver" fill="none" stroke-dasharray="4,2" pointer-events="none" d="M660 0 L 660 171"/></g><g class="panelgridline" display="inherit"><path stroke-width="1" stroke="silver" fill="none" stroke-dasharray="4,2" pointer-events="none" d="M667 0 L 667 171"/></g><g class="panelgridline" display="inherit"><path stroke-width="1" stroke="silver" fill="none" stroke-dasharray="4,2" pointer-events="none" d="M742 0 L 742 171"/></g><g class="panelgridline" display="inherit"><path stroke-width="1" stroke="silver" fill="none" stroke-dasharray="4,2" pointer-events="none" d="M749 0 L 749 171"/></g><g class="panelgridline" display="inherit"><path stroke-width="1" stroke="silver" fill="none" stroke-dasharray="4,2" pointer-events="none" d="M824 0 L 824 171"/></g><g class="panelgridline" display="inherit"><path stroke-width="1" stroke="silver" fill="none" stroke-dasharray="4,2" pointer-events="none" d="M831 0 L 831 171"/></g><g class="panelgridline" display="inherit"><path stroke-width="1" stroke="silver" fill="none" stroke-dasharray="4,2" pointer-events="none" d="M906 0 L 906 171"/></g><g class="panelgridline" display="inherit"><path stroke-width="1" stroke="silver" fill="none" stroke-dasharray="4,2" pointer-events="none" d="M913 0 L 913 171"/></g><g class="panelgridline" display="inherit"><path stroke-width="1" stroke="silver" fill="none" stroke-dasharray="4,2" pointer-events="none" d="M988 0 L 988 171"/></g><g class="panelgridline" display="none"><path stroke-width="1" stroke="silver" fill="none" stroke-dasharray="4,2" pointer-events="none"/></g><g class="panelgridline" display="none"><path stroke-width="1" stroke="silver" fill="none" stroke-dasharray="4,2" pointer-events="none"/></g><g class="panelgridline" display="inherit"><path stroke-width="1" stroke="silver" fill="none" stroke-dasharray="4,2" pointer-events="none" d="M0 94 L 999.0000000000001 94"/></g><g class="panelgridline" display="inherit"><path stroke-width="1" stroke="silver" fill="none" stroke-dasharray="4,2" pointer-events="none" d="M0 150 L 999.0000000000001 150"/></g></g><g class="children" style="overflow:hidden"><g id="svg-text1"><g class="stencils" transform="translate(15, 25)"><g class="me"><g oryx:minimumSize="20 26" id="oryx_3CD7C0BA-8A45-417E-95BC-0B1395CC9C54" title="cloud-text">   <defs id="oryx_3CD7C0BA-8A45-417E-95BC-0B1395CC9C54_oryx_3CD7C0BA-8A45-417E-95BC-0B1395CC9C54_2">           <radialGradient id="oryx_3CD7C0BA-8A45-417E-95BC-0B1395CC9C54transparent" cx="10%" cy="10%" r="100%" fx="10%" fy="10%">     <stop offset="0%" stop-color="#ffffff" stop-opacity="0" id="oryx_3CD7C0BA-8A45-417E-95BC-0B1395CC9C54_oryx_3CD7C0BA-8A45-417E-95BC-0B1395CC9C54_3"/>     <stop offset="100%" stop-color="#ffffff" stop-opacity="0" id="oryx_3CD7C0BA-8A45-417E-95BC-0B1395CC9C54_oryx_3CD7C0BA-8A45-417E-95BC-0B1395CC9C54_4"/>      </radialGradient>     </defs>     <rect id="oryx_3CD7C0BA-8A45-417E-95BC-0B1395CC9C54bg_frame" oryx:anchors="left top" x="0" y="0" width="477" height="48" stroke="none" fill="url(#oryx_3CD7C0BA-8A45-417E-95BC-0B1395CC9C54transparent)" class="transparent"/>    <g id="oryx_3CD7C0BA-8A45-417E-95BC-0B1395CC9C54a">    <rect id="oryx_3CD7C0BA-8A45-417E-95BC-0B1395CC9C54label" oryx:anchors="left top" x="0" y="0" width="472" height="24" stroke="none" fill="url(#oryx_3CD7C0BA-8A45-417E-95BC-0B1395CC9C54transparent)" class="transparent"/>    <text id="oryx_3CD7C0BA-8A45-417E-95BC-0B1395CC9C54label_text" oryx:anchors="left top" font-size="11" x="5" y="12" oryx:align="middle left" stroke="black" stroke-width="0pt" letter-spacing="0.006202313503089789px" oryx:fontSize="11" transform="rotate(0 5 12)" text-anchor="start"><tspan dy="4" x="5" y="12">Customer name</tspan></text>   </g>      <g id="oryx_3CD7C0BA-8A45-417E-95BC-0B1395CC9C54b" stroke="#000000">    <rect id="oryx_3CD7C0BA-8A45-417E-95BC-0B1395CC9C54input" oryx:anchors="left top" style="fill:white;" x="0" y="24" height="24" width="477"/>    <text id="oryx_3CD7C0BA-8A45-417E-95BC-0B1395CC9C54input_text" oryx:anchors="left top" oryx:align="middle left" font-size="11" x="5" y="36" stroke="black" fill="gray" font-style="italic" stroke-width="0pt" letter-spacing="0.008784064275658528px" oryx:fontSize="11" transform="rotate(0 5 36)" text-anchor="start"><tspan dy="4" x="5" y="36">{{customerName}}</tspan></text>   </g>        <g id="oryx_3CD7C0BA-8A45-417E-95BC-0B1395CC9C54c" transform="translate(1,8)">    <path id="oryx_3CD7C0BA-8A45-417E-95BC-0B1395CC9C54mandatory_Indicator" oryx:anchors="middle left" d=" m14.30275 21.434447692307693  l-2.49912 0  l-0.77223 2.37422  l-0.77227 -2.37422  l-2.49912 0  l2.02183 -1.46721  l-0.77229 -2.37417  l2.02184 1.46732  l2.02183 -1.46732  l-0.77232 2.37417  l2.02184 1.46721  z" stroke="#ff0000" fill="#ff0000" display="none" style="cursor:pointer" original-stroke="#ff0000" original-fill="#ff0000"/>   </g>    <g id="oryx_3CD7C0BA-8A45-417E-95BC-0B1395CC9C54d">    <path id="oryx_3CD7C0BA-8A45-417E-95BC-0B1395CC9C54feedback_Indicator" oryx:anchors="left top" d="M300,15 320,15 310,0 Z M310 4 L310 10 Z M310 11 L310 13 Z" stroke="black" fill="#ff0000" display="none"/>   </g>      <g id="oryx_3CD7C0BA-8A45-417E-95BC-0B1395CC9C54e">    <rect id="oryx_3CD7C0BA-8A45-417E-95BC-0B1395CC9C54desc" oryx:anchors="left top" stroke="none" fill="url(#oryx_3CD7C0BA-8A45-417E-95BC-0B1395CC9C54transparent)" x="0" y="0" height="24" width="477" display="none" class="transparent"/>    <text id="oryx_3CD7C0BA-8A45-417E-95BC-0B1395CC9C54desc_text" oryx:anchors="left top" oryx:align="middle left" font-size="11" x="0" y="12" stroke="black" fill="gray" font-style="italic" display="none" stroke-width="0pt" letter-spacing="0.002154673222439161px" oryx:fontSize="11" transform="rotate(0 0 12)" text-anchor="start"/>   </g>     </g></g><g class="children" style="overflow:hidden"/><g class="edge"/><path id="warningId-oryx_3CD7C0BA-8A45-417E-95BC-0B1395CC9C54" class="validationError" title="" stroke-width="1" stroke="red" fill="white" d="M5,-5 L20,-5 L12,-20 z M12,-15 L12,-10 M12,-9 L12,-7" line-captions="round" style="cursor:pointer" data-html="true" display="none"/></g><g class="controls"><g class="dockers"/><g class="magnets" transform="translate(15, 25)"><g pointer-events="all" display="none" transform="translate(249678.72350007377, 16)"><circle cx="8" cy="8" r="4" stroke="none" fill="red" fill-opacity="0.3"/></g></g></g></g><g id="svg-text2"><g class="stencils" transform="translate(507, 25)"><g class="me"><g oryx:minimumSize="20 26" id="oryx_C40BC79E-4C7A-4E04-AD9C-6B0F8B0D080D" title="cloud-text">   <defs id="oryx_C40BC79E-4C7A-4E04-AD9C-6B0F8B0D080D_oryx_C40BC79E-4C7A-4E04-AD9C-6B0F8B0D080D_2">           <radialGradient id="oryx_C40BC79E-4C7A-4E04-AD9C-6B0F8B0D080Dtransparent" cx="10%" cy="10%" r="100%" fx="10%" fy="10%">     <stop offset="0%" stop-color="#ffffff" stop-opacity="0" id="oryx_C40BC79E-4C7A-4E04-AD9C-6B0F8B0D080D_oryx_C40BC79E-4C7A-4E04-AD9C-6B0F8B0D080D_3"/>     <stop offset="100%" stop-color="#ffffff" stop-opacity="0" id="oryx_C40BC79E-4C7A-4E04-AD9C-6B0F8B0D080D_oryx_C40BC79E-4C7A-4E04-AD9C-6B0F8B0D080D_4"/>      </radialGradient>     </defs>     <rect id="oryx_C40BC79E-4C7A-4E04-AD9C-6B0F8B0D080Dbg_frame" oryx:anchors="left top" x="0" y="0" width="477" height="48" stroke="none" fill="url(#oryx_C40BC79E-4C7A-4E04-AD9C-6B0F8B0D080Dtransparent)" class="transparent"/>    <g id="oryx_C40BC79E-4C7A-4E04-AD9C-6B0F8B0D080Da">    <rect id="oryx_C40BC79E-4C7A-4E04-AD9C-6B0F8B0D080Dlabel" oryx:anchors="left top" x="0" y="0" width="472" height="24" stroke="none" fill="url(#oryx_C40BC79E-4C7A-4E04-AD9C-6B0F8B0D080Dtransparent)" class="transparent"/>    <text id="oryx_C40BC79E-4C7A-4E04-AD9C-6B0F8B0D080Dlabel_text" oryx:anchors="left top" font-size="11" x="5" y="12" oryx:align="middle left" stroke="black" stroke-width="0pt" letter-spacing="0.007107839038858526px" oryx:fontSize="11" transform="rotate(0 5 12)" text-anchor="start"><tspan dy="4" x="5" y="12">Customer country</tspan></text>   </g>      <g id="oryx_C40BC79E-4C7A-4E04-AD9C-6B0F8B0D080Db" stroke="#000000">    <rect id="oryx_C40BC79E-4C7A-4E04-AD9C-6B0F8B0D080Dinput" oryx:anchors="left top" style="fill:white;" x="0" y="24" height="24" width="477"/>    <text id="oryx_C40BC79E-4C7A-4E04-AD9C-6B0F8B0D080Dinput_text" oryx:anchors="left top" oryx:align="middle left" font-size="11" x="5" y="36" stroke="black" fill="gray" font-style="italic" stroke-width="0pt" letter-spacing="0.004213219889781465px" oryx:fontSize="11" transform="rotate(0 5 36)" text-anchor="start"><tspan dy="4" x="5" y="36">{{customerCountry}}</tspan></text>   </g>        <g id="oryx_C40BC79E-4C7A-4E04-AD9C-6B0F8B0D080Dc" transform="translate(1,8)">    <path id="oryx_C40BC79E-4C7A-4E04-AD9C-6B0F8B0D080Dmandatory_Indicator" oryx:anchors="middle left" d=" m14.30275 21.434447692307693  l-2.49912 0  l-0.77223 2.37422  l-0.77227 -2.37422  l-2.49912 0  l2.02183 -1.46721  l-0.77229 -2.37417  l2.02184 1.46732  l2.02183 -1.46732  l-0.77232 2.37417  l2.02184 1.46721  z" stroke="#ff0000" fill="#ff0000" display="none" style="cursor:pointer" original-stroke="#ff0000" original-fill="#ff0000"/>   </g>    <g id="oryx_C40BC79E-4C7A-4E04-AD9C-6B0F8B0D080Dd">    <path id="oryx_C40BC79E-4C7A-4E04-AD9C-6B0F8B0D080Dfeedback_Indicator" oryx:anchors="left top" d="M300,15 320,15 310,0 Z M310 4 L310 10 Z M310 11 L310 13 Z" stroke="black" fill="#ff0000" display="none"/>   </g>      <g id="oryx_C40BC79E-4C7A-4E04-AD9C-6B0F8B0D080De">    <rect id="oryx_C40BC79E-4C7A-4E04-AD9C-6B0F8B0D080Ddesc" oryx:anchors="left top" stroke="none" fill="url(#oryx_C40BC79E-4C7A-4E04-AD9C-6B0F8B0D080Dtransparent)" x="0" y="0" height="24" width="477" display="none" class="transparent"/>    <text id="oryx_C40BC79E-4C7A-4E04-AD9C-6B0F8B0D080Ddesc_text" oryx:anchors="left top" oryx:align="middle left" font-size="11" x="0" y="12" stroke="black" fill="gray" font-style="italic" display="none" stroke-width="0pt" letter-spacing="0.00955431357734406px" oryx:fontSize="11" transform="rotate(0 0 12)" text-anchor="start"/>   </g>     </g></g><g class="children" style="overflow:hidden"/><g class="edge"/><path id="warningId-oryx_C40BC79E-4C7A-4E04-AD9C-6B0F8B0D080D" class="validationError" title="" stroke-width="1" stroke="red" fill="white" d="M5,-5 L20,-5 L12,-20 z M12,-15 L12,-10 M12,-9 L12,-7" line-captions="round" style="cursor:pointer" data-html="true" display="none"/></g><g class="controls"><g class="dockers"/><g class="magnets" transform="translate(507, 25)"><g pointer-events="all" display="none" transform="translate(104682.45010485272, 16)"><circle cx="8" cy="8" r="4" stroke="none" fill="red" fill-opacity="0.3"/></g></g></g></g><g id="svg-integer-number1"><g class="stencils" transform="translate(15, 98)"><g class="me"><g oryx:minimumSize="20 26" id="oryx_E00279F0-587E-4C36-892C-618EBCF56FA7" title="cloud-integer-number">   <defs id="oryx_E00279F0-587E-4C36-892C-618EBCF56FA7_oryx_E00279F0-587E-4C36-892C-618EBCF56FA7_2">         <marker id="oryx_E00279F0-587E-4C36-892C-618EBCF56FA7number_marker" refX="25" refY="0" markerWidth="24" markerHeight="24">         <path d="M1,32 1,0 M10,21 10,4  M17,21 17,4 Z M5,10 21,10 Z  M5,16 21,16 Z" oryx:anchors="left top" fill="black" id="oryx_E00279F0-587E-4C36-892C-618EBCF56FA7_oryx_E00279F0-587E-4C36-892C-618EBCF56FA7_3"/>      </marker>      <radialGradient id="oryx_E00279F0-587E-4C36-892C-618EBCF56FA7transparent" cx="10%" cy="10%" r="100%" fx="10%" fy="10%">     <stop offset="0%" stop-color="#ffffff" stop-opacity="0" id="oryx_E00279F0-587E-4C36-892C-618EBCF56FA7_oryx_E00279F0-587E-4C36-892C-618EBCF56FA7_4"/>     <stop offset="100%" stop-color="#ffffff" stop-opacity="0" id="oryx_E00279F0-587E-4C36-892C-618EBCF56FA7_oryx_E00279F0-587E-4C36-892C-618EBCF56FA7_5"/>      </radialGradient>     </defs>     <rect id="oryx_E00279F0-587E-4C36-892C-618EBCF56FA7bg_frame" oryx:anchors="left top" x="0" y="0" width="969" height="48" stroke="none" fill="url(#oryx_E00279F0-587E-4C36-892C-618EBCF56FA7transparent)" class="transparent"/>    <g id="oryx_E00279F0-587E-4C36-892C-618EBCF56FA7a">    <rect id="oryx_E00279F0-587E-4C36-892C-618EBCF56FA7label" oryx:anchors="left top" x="0" y="0" width="964" height="24" stroke="none" fill="url(#oryx_E00279F0-587E-4C36-892C-618EBCF56FA7transparent)" class="transparent"/>    <text id="oryx_E00279F0-587E-4C36-892C-618EBCF56FA7label_text" oryx:anchors="left top" font-size="11" x="5" y="12" oryx:align="middle left" stroke="black" stroke-width="0pt" letter-spacing="0.00761269238778587px" oryx:fontSize="11" transform="rotate(0 5 12)" text-anchor="start" style="visibility: visible;"><tspan dy="4" x="5" y="12">Loan Amount</tspan></text>   </g>      <g id="oryx_E00279F0-587E-4C36-892C-618EBCF56FA7b" stroke="#000000">     <path id="oryx_E00279F0-587E-4C36-892C-618EBCF56FA7input" oryx:anchors="left top" d=" M969 24  L969 48  L0 48  L0 24  L969 24  z M969 24 " marker-end="url(#oryx_E00279F0-587E-4C36-892C-618EBCF56FA7number_marker)" style="fill:white;opacity:0.9999;"/>     <text id="oryx_E00279F0-587E-4C36-892C-618EBCF56FA7input_text" oryx:anchors="left top" oryx:align="middle left" font-size="11" x="5" y="36" stroke="black" fill="gray" font-style="italic" stroke-width="0pt" letter-spacing="0.0032508104833581255px" oryx:fontSize="11" transform="rotate(0 5 36)" text-anchor="start"><tspan dy="4" x="5" y="36">{{loanAmount}}</tspan></text>   </g>        <g id="oryx_E00279F0-587E-4C36-892C-618EBCF56FA7c" transform="translate(1,8)">    <path id="oryx_E00279F0-587E-4C36-892C-618EBCF56FA7mandatory_Indicator" oryx:anchors="middle left" d=" m14.30275 17.553035  l-2.49912 0  l-0.77223 2.37422  l-0.77227 -2.37422  l-2.49912 0  l2.02183 -1.46721  l-0.77229 -2.37417  l2.02184 1.46732  l2.02183 -1.46732  l-0.77232 2.37417  l2.02184 1.46721  z" stroke="#ff0000" fill="#ff0000" display="none" style="cursor:pointer" original-stroke="#ff0000" original-fill="#ff0000"/>   </g>    <g id="oryx_E00279F0-587E-4C36-892C-618EBCF56FA7d">    <path id="oryx_E00279F0-587E-4C36-892C-618EBCF56FA7feedback_Indicator" oryx:anchors="left top" d="M300,15 320,15 310,0 Z M310 4 L310 10 Z M310 11 L310 13 Z" stroke="black" fill="#ff0000" display="none"/>   </g>      <g id="oryx_E00279F0-587E-4C36-892C-618EBCF56FA7e">    <rect id="oryx_E00279F0-587E-4C36-892C-618EBCF56FA7desc" oryx:anchors="left top" stroke="none" fill="url(#oryx_E00279F0-587E-4C36-892C-618EBCF56FA7transparent)" x="0" y="0" height="24" width="969" display="none" class="transparent"/>    <text id="oryx_E00279F0-587E-4C36-892C-618EBCF56FA7desc_text" oryx:anchors="left top" oryx:align="middle left" font-size="11" x="0" y="12" stroke="black" fill="gray" font-style="italic" display="none" stroke-width="0pt" letter-spacing="0.009151835339045285px" oryx:fontSize="11" transform="rotate(0 0 12)" text-anchor="start"/>   </g>     </g></g><g class="children" style="overflow:hidden"/><g class="edge"/><path id="warningId-oryx_E00279F0-587E-4C36-892C-618EBCF56FA7" class="validationError" title="" stroke-width="1" stroke="red" fill="white" d="M5,-5 L20,-5 L12,-20 z M12,-15 L12,-10 M12,-9 L12,-7" line-captions="round" style="cursor:pointer" data-html="true" display="none"/></g><g class="controls"><g class="dockers"/><g class="magnets" transform="translate(15, 98)"><g pointer-events="all" display="none" transform="translate(11365.165112499997, 16)"><circle cx="8" cy="8" r="4" stroke="none" fill="red" fill-opacity="0.3"/></g></g></g></g></g><g class="edge"/><g class="panelcell" display="none" transform="translate(0, 77)"><rect x="0" y="0" stroke-width="2" stroke="#00FF00" fill="none" pointer-events="none" width="999.0000000000001" height="21"/></g><path id="warningId-oryx_4CB8FD0D-7D21-4040-9953-827EA20EACFF" class="validationError" title="" stroke-width="1" stroke="red" fill="white" d="M5,-5 L20,-5 L12,-20 z M12,-15 L12,-10 M12,-9 L12,-7" line-captions="round" style="cursor:pointer" data-html="true" display="none"/></g><g class="controls"><g class="dockers"/><g class="magnets" transform="translate(50, 50)"><g pointer-events="all" display="none" transform="translate(491.5000000000004, 77.5)"><circle cx="8" cy="8" r="4" stroke="none" fill="red" fill-opacity="0.3"/></g></g></g></g></g><g class="edge"/></g></g></svg>