<svg xmlns="http://www.w3.org/2000/svg" xmlns:oryx="http://oryx-editor.org" id="oryx_7EDCE10C-DD01-423B-A0CF-7C4E180E91F3" width="1049" height="241" xmlns:xlink="http://www.w3.org/1999/xlink" xmlns:svg="http://www.w3.org/2000/svg"><defs/><g stroke="black" font-family="arial,sans-serif" font-size-adjust="none" font-style="normal" font-variant="normal" font-weight="normal" line-heigth="normal" font-size="12"><g class="stencils" transform="translate(-25, -25)"><g class="me"/><g class="children"><g id="svg-panel1"><g class="stencils" transform="translate(50, 50)"><g class="me"><g oryx:minimumSize="40 34" id="oryx_A00D30B8-48A4-4CCA-A4FE-796A5682951A" title="SlotPanel">     <rect id="oryx_A00D30B8-48A4-4CCA-A4FE-796A5682951Ainput" oryx:anchors="left top" oryx:resize="vertical horizontal" x="0" y="0" width="999.0000000000001" height="191" stroke="#777777" stroke-width="1" fill="#ffffff"/>   </g></g><g class="background"><g class="cellBg" display="inherit" transform="translate(11, 114)"><rect x="0" y="0" stroke-width="2" stroke="none" fill="#ffffff" pointer-events="all" width="977" height="56"/></g><g class="cellBg" display="inherit" transform="translate(11, 114)"><rect x="0" y="0" stroke-width="2" stroke="none" fill="#ffffff" pointer-events="all" width="977" height="56"/></g><g class="cellBg" display="inherit" transform="translate(11, 114)"><rect x="0" y="0" stroke-width="2" stroke="none" fill="#ffffff" pointer-events="all" width="977" height="56"/></g><g class="cellBg" display="inherit" transform="translate(11, 114)"><rect x="0" y="0" stroke-width="2" stroke="none" fill="#ffffff" pointer-events="all" width="977" height="56"/></g><g class="cellBg" display="inherit" transform="translate(11, 114)"><rect x="0" y="0" stroke-width="2" stroke="none" fill="#ffffff" pointer-events="all" width="977" height="56"/></g><g class="cellBg" display="inherit" transform="translate(11, 114)"><rect x="0" y="0" stroke-width="2" stroke="none" fill="#ffffff" pointer-events="all" width="977" height="56"/></g><g class="cellBg" display="inherit" transform="translate(11, 21)"><rect x="0" y="0" stroke-width="2" stroke="none" fill="#ffffff" pointer-events="all" width="977" height="76"/></g><g class="cellBg" display="inherit" transform="translate(11, 21)"><rect x="0" y="0" stroke-width="2" stroke="none" fill="#ffffff" pointer-events="all" width="977" height="76"/></g><g class="cellBg" display="inherit" transform="translate(11, 21)"><rect x="0" y="0" stroke-width="2" stroke="none" fill="#ffffff" pointer-events="all" width="977" height="76"/></g><g class="cellBg" display="inherit" transform="translate(11, 21)"><rect x="0" y="0" stroke-width="2" stroke="none" fill="#ffffff" pointer-events="all" width="977" height="76"/></g><g class="cellBg" display="inherit" transform="translate(11, 21)"><rect x="0" y="0" stroke-width="2" stroke="none" fill="#ffffff" pointer-events="all" width="977" height="76"/></g><g class="cellBg" display="inherit" transform="translate(11, 21)"><rect x="0" y="0" stroke-width="2" stroke="none" fill="#ffffff" pointer-events="all" width="977" height="76"/></g><g class="cellBg" display="inherit" transform="translate(11, 21)"><rect x="0" y="0" stroke-width="2" stroke="none" fill="#ffffff" pointer-events="all" width="977" height="76"/></g><g class="cellBg" display="inherit" transform="translate(11, 21)"><rect x="0" y="0" stroke-width="2" stroke="none" fill="#ffffff" pointer-events="all" width="977" height="76"/></g><g class="cellBg" display="inherit" transform="translate(11, 21)"><rect x="0" y="0" stroke-width="2" stroke="none" fill="#ffffff" pointer-events="all" width="977" height="76"/></g><g class="cellBg" display="inherit" transform="translate(11, 21)"><rect x="0" y="0" stroke-width="2" stroke="none" fill="#ffffff" pointer-events="all" width="977" height="76"/></g><g class="cellBg" display="inherit" transform="translate(11, 21)"><rect x="0" y="0" stroke-width="2" stroke="none" fill="#ffffff" pointer-events="all" width="977" height="76"/></g><g class="cellBg" display="inherit" transform="translate(11, 21)"><rect x="0" y="0" stroke-width="2" stroke="none" fill="#ffffff" pointer-events="all" width="977" height="76"/></g><g class="cellBg" display="inherit" transform="translate(11, 114)"><rect x="0" y="0" stroke-width="2" stroke="none" fill="#ffffff" pointer-events="all" width="977" height="56"/></g><g class="cellBg" display="inherit" transform="translate(11, 114)"><rect x="0" y="0" stroke-width="2" stroke="none" fill="#ffffff" pointer-events="all" width="977" height="56"/></g><g class="cellBg" display="inherit" transform="translate(11, 114)"><rect x="0" y="0" stroke-width="2" stroke="none" fill="#ffffff" pointer-events="all" width="977" height="56"/></g><g class="cellBg" display="inherit" transform="translate(11, 114)"><rect x="0" y="0" stroke-width="2" stroke="none" fill="#ffffff" pointer-events="all" width="977" height="56"/></g><g class="cellBg" display="inherit" transform="translate(11, 114)"><rect x="0" y="0" stroke-width="2" stroke="none" fill="#ffffff" pointer-events="all" width="977" height="56"/></g><g class="cellBg" display="inherit" transform="translate(11, 114)"><rect x="0" y="0" stroke-width="2" stroke="none" fill="#ffffff" pointer-events="all" width="977" height="56"/></g><g class="columnBackground split" display="none"><rect x="0" y="0" stroke="none" fill="#ffffff" pointer-events="none"/></g></g><g class="gridline"><g class="panelgridline" display="inherit"><path stroke-width="1" stroke="silver" fill="none" stroke-dasharray="4,2" pointer-events="none" d="M0 21 L 999.0000000000001 21"/></g><g class="panelgridline" display="inherit"><path stroke-width="1" stroke="silver" fill="none" stroke-dasharray="4,2" pointer-events="none" d="M0 97 L 999.0000000000001 97"/></g><g class="panelgridline" display="inherit"><path stroke-width="1" stroke="silver" fill="none" stroke-dasharray="4,2" pointer-events="none" d="M0 114 L 999.0000000000001 114"/></g><g class="panelgridline" display="inherit"><path stroke-width="1" stroke="silver" fill="none" stroke-dasharray="4,2" pointer-events="none" d="M0 170 L 999.0000000000001 170"/></g><g class="panelgridline" display="inherit"><path stroke-width="1" stroke="silver" fill="none" stroke-dasharray="4,2" pointer-events="none" d="M11 0 L 11 191"/></g><g class="panelgridline" display="inherit"><path stroke-width="1" stroke="silver" fill="none" stroke-dasharray="4,2" pointer-events="none" d="M86 0 L 86 191"/></g><g class="panelgridline" display="inherit"><path stroke-width="1" stroke="silver" fill="none" stroke-dasharray="4,2" pointer-events="none" d="M93 0 L 93 191"/></g><g class="panelgridline" display="inherit"><path stroke-width="1" stroke="silver" fill="none" stroke-dasharray="4,2" pointer-events="none" d="M168 0 L 168 191"/></g><g class="panelgridline" display="inherit"><path stroke-width="1" stroke="silver" fill="none" stroke-dasharray="4,2" pointer-events="none" d="M175 0 L 175 191"/></g><g class="panelgridline" display="inherit"><path stroke-width="1" stroke="silver" fill="none" stroke-dasharray="4,2" pointer-events="none" d="M250 0 L 250 191"/></g><g class="panelgridline" display="inherit"><path stroke-width="1" stroke="silver" fill="none" stroke-dasharray="4,2" pointer-events="none" d="M257 0 L 257 191"/></g><g class="panelgridline" display="inherit"><path stroke-width="1" stroke="silver" fill="none" stroke-dasharray="4,2" pointer-events="none" d="M332 0 L 332 191"/></g><g class="panelgridline" display="inherit"><path stroke-width="1" stroke="silver" fill="none" stroke-dasharray="4,2" pointer-events="none" d="M339 0 L 339 191"/></g><g class="panelgridline" display="inherit"><path stroke-width="1" stroke="silver" fill="none" stroke-dasharray="4,2" pointer-events="none" d="M414 0 L 414 191"/></g><g class="panelgridline" display="inherit"><path stroke-width="1" stroke="silver" fill="none" stroke-dasharray="4,2" pointer-events="none" d="M421 0 L 421 191"/></g><g class="panelgridline" display="inherit"><path stroke-width="1" stroke="silver" fill="none" stroke-dasharray="4,2" pointer-events="none" d="M496 0 L 496 191"/></g><g class="panelgridline" display="inherit"><path stroke-width="1" stroke="silver" fill="none" stroke-dasharray="4,2" pointer-events="none" d="M503 0 L 503 191"/></g><g class="panelgridline" display="inherit"><path stroke-width="1" stroke="silver" fill="none" stroke-dasharray="4,2" pointer-events="none" d="M578 0 L 578 191"/></g><g class="panelgridline" display="inherit"><path stroke-width="1" stroke="silver" fill="none" stroke-dasharray="4,2" pointer-events="none" d="M585 0 L 585 191"/></g><g class="panelgridline" display="inherit"><path stroke-width="1" stroke="silver" fill="none" stroke-dasharray="4,2" pointer-events="none" d="M660 0 L 660 191"/></g><g class="panelgridline" display="inherit"><path stroke-width="1" stroke="silver" fill="none" stroke-dasharray="4,2" pointer-events="none" d="M667 0 L 667 191"/></g><g class="panelgridline" display="inherit"><path stroke-width="1" stroke="silver" fill="none" stroke-dasharray="4,2" pointer-events="none" d="M742 0 L 742 191"/></g><g class="panelgridline" display="inherit"><path stroke-width="1" stroke="silver" fill="none" stroke-dasharray="4,2" pointer-events="none" d="M749 0 L 749 191"/></g><g class="panelgridline" display="inherit"><path stroke-width="1" stroke="silver" fill="none" stroke-dasharray="4,2" pointer-events="none" d="M824 0 L 824 191"/></g><g class="panelgridline" display="inherit"><path stroke-width="1" stroke="silver" fill="none" stroke-dasharray="4,2" pointer-events="none" d="M831 0 L 831 191"/></g><g class="panelgridline" display="inherit"><path stroke-width="1" stroke="silver" fill="none" stroke-dasharray="4,2" pointer-events="none" d="M906 0 L 906 191"/></g><g class="panelgridline" display="inherit"><path stroke-width="1" stroke="silver" fill="none" stroke-dasharray="4,2" pointer-events="none" d="M913 0 L 913 191"/></g><g class="panelgridline" display="inherit"><path stroke-width="1" stroke="silver" fill="none" stroke-dasharray="4,2" pointer-events="none" d="M988 0 L 988 191"/></g><g class="panelgridline" display="none"><path stroke-width="1" stroke="silver" fill="none" stroke-dasharray="4,2" pointer-events="none"/></g><g class="panelgridline" display="none"><path stroke-width="1" stroke="silver" fill="none" stroke-dasharray="4,2" pointer-events="none"/></g></g><g class="children" style="overflow:hidden"><g id="svg-user-auto-complete1"><g class="stencils" transform="translate(15, 118)"><g class="me"><g oryx:minimumSize="25 26" id="oryx_8926CF92-731E-4C32-95A3-3A5DB1BC960D" title="user-auto-complete">   <defs id="oryx_8926CF92-731E-4C32-95A3-3A5DB1BC960D_oryx_8926CF92-731E-4C32-95A3-3A5DB1BC960D_2">       <marker id="oryx_8926CF92-731E-4C32-95A3-3A5DB1BC960Dsearch_marker" refX="25" refY="0" markerWidth="20" markerHeight="24">         <path d="M1 1 L1 23 Z M7 5 A 4 4 0 0 0 16 16 M7 5 A 4 4 0 0 1 16 16 M 16 16 L 22 22 Z M 16 15 L 22 21 Z" oryx:anchors="left top" fill="none" id="oryx_8926CF92-731E-4C32-95A3-3A5DB1BC960D_oryx_8926CF92-731E-4C32-95A3-3A5DB1BC960D_3"/>    </marker>    <radialGradient id="oryx_8926CF92-731E-4C32-95A3-3A5DB1BC960Dtransparent" cx="10%" cy="10%" r="100%" fx="10%" fy="10%">     <stop offset="0%" stop-color="#ffffff" stop-opacity="0" id="oryx_8926CF92-731E-4C32-95A3-3A5DB1BC960D_oryx_8926CF92-731E-4C32-95A3-3A5DB1BC960D_4"/>     <stop offset="100%" stop-color="#ffffff" stop-opacity="0" id="oryx_8926CF92-731E-4C32-95A3-3A5DB1BC960D_oryx_8926CF92-731E-4C32-95A3-3A5DB1BC960D_5"/>       </radialGradient>      </defs>      <rect id="oryx_8926CF92-731E-4C32-95A3-3A5DB1BC960Dbg_frame" oryx:anchors="left top" x="0" y="0" width="969" height="48" stroke="none" fill="url(#oryx_8926CF92-731E-4C32-95A3-3A5DB1BC960Dtransparent)" class="transparent"/>    <g id="oryx_8926CF92-731E-4C32-95A3-3A5DB1BC960Da">    <rect id="oryx_8926CF92-731E-4C32-95A3-3A5DB1BC960Dlabel" oryx:anchors="left top" x="0" y="0" width="964" height="24" stroke="none" fill="url(#oryx_8926CF92-731E-4C32-95A3-3A5DB1BC960Dtransparent)" class="transparent"/>    <text id="oryx_8926CF92-731E-4C32-95A3-3A5DB1BC960Dlabel_text" oryx:anchors="left top" oryx:align="middle left" font-size="11" x="5" y="12" stroke="black" stroke-width="0pt" letter-spacing="0.004059547596764132px" oryx:fontSize="11" transform="rotate(0 5 12)" text-anchor="start"><tspan dy="4" x="5" y="12">Field Officer</tspan></text>   </g>      <g id="oryx_8926CF92-731E-4C32-95A3-3A5DB1BC960Db">       <path id="oryx_8926CF92-731E-4C32-95A3-3A5DB1BC960Dinput" oryx:anchors="left top" d=" M969 24  L969 48  L0 48  L0 24  L969 24  z" marker-end="url(#oryx_8926CF92-731E-4C32-95A3-3A5DB1BC960Dsearch_marker)" fill="none" style="opacity:0.9999;"/>             <text id="oryx_8926CF92-731E-4C32-95A3-3A5DB1BC960Dinput_text" oryx:anchors="left top" oryx:align="middle left" font-size="11" x="5" y="36" stroke="black" fill="gray" font-style="italic" stroke-width="0pt" letter-spacing="0.0012482593642029552px" oryx:fontSize="11" transform="rotate(0 5 36)" text-anchor="start"><tspan dy="4" x="5" y="36">{{fieldOfficer}}</tspan></text>   </g>      <g id="oryx_8926CF92-731E-4C32-95A3-3A5DB1BC960Dc" transform="translate(1,8)">    <path id="oryx_8926CF92-731E-4C32-95A3-3A5DB1BC960Dmandatory_Indicator" oryx:anchors="middle left" d=" m14.30275 21.434447692307693  l-2.49912 0  l-0.77223 2.37422  l-0.77227 -2.37422  l-2.49912 0  l2.02183 -1.46721  l-0.77229 -2.37417  l2.02184 1.46732  l2.02183 -1.46732  l-0.77232 2.37417  l2.02184 1.46721  z" stroke="#ff0000" fill="#ff0000" display="none" style="cursor:pointer" original-stroke="#ff0000" original-fill="#ff0000"/>   </g>      <g id="oryx_8926CF92-731E-4C32-95A3-3A5DB1BC960Dd">    <path id="oryx_8926CF92-731E-4C32-95A3-3A5DB1BC960Dfeedback_Indicator" oryx:anchors="left top" d="M300,15 320,15 310,0 Z M310 4 L310 10 Z M310 11 L310 13 Z" stroke="black" fill="#ff0000" display="none"/>   </g>        <g id="oryx_8926CF92-731E-4C32-95A3-3A5DB1BC960De">    <rect id="oryx_8926CF92-731E-4C32-95A3-3A5DB1BC960Ddesc" oryx:anchors="left top" stroke="none" fill="url(#oryx_8926CF92-731E-4C32-95A3-3A5DB1BC960Dtransparent)" x="0" y="0" height="24" width="969" display="none" class="transparent"/>    <text id="oryx_8926CF92-731E-4C32-95A3-3A5DB1BC960Ddesc_text" oryx:anchors="left top" oryx:align="middle left" font-size="11" x="0" y="12" stroke="black" fill="gray" font-style="italic" display="none" stroke-width="0pt" letter-spacing="0.0017181941919568273px" oryx:fontSize="11" transform="rotate(0 0 12)" text-anchor="start"/>   </g>       </g></g><g class="children" style="overflow:hidden"/><g class="edge"/><path id="warningId-oryx_8926CF92-731E-4C32-95A3-3A5DB1BC960D" class="validationError" title="" stroke-width="1" stroke="red" fill="white" d="M5,-5 L20,-5 L12,-20 z M12,-15 L12,-10 M12,-9 L12,-7" line-captions="round" style="cursor:pointer" data-html="true" display="none"/></g><g class="controls"><g class="dockers"/><g class="magnets" transform="translate(15, 118)"><g pointer-events="all" display="none" transform="translate(476.5, 16)"><circle cx="8" cy="8" r="4" stroke="none" fill="red" fill-opacity="0.3"/></g></g></g></g><g id="svg-sub-form1"><g class="stencils" transform="translate(15, 25)"><g class="me"><g oryx:minimumSize="24 26" id="oryx_49587DE3-73C0-4973-B0CB-91A8419F6CF3" title="cloud-sub-form">         <defs id="oryx_49587DE3-73C0-4973-B0CB-91A8419F6CF3_oryx_49587DE3-73C0-4973-B0CB-91A8419F6CF3_2">    <radialGradient id="oryx_49587DE3-73C0-4973-B0CB-91A8419F6CF3transparent" cx="10%" cy="10%" r="100%" fx="10%" fy="10%">     <stop offset="0%" stop-color="#ffffff" stop-opacity="0" id="oryx_49587DE3-73C0-4973-B0CB-91A8419F6CF3_oryx_49587DE3-73C0-4973-B0CB-91A8419F6CF3_3"/>     <stop offset="100%" stop-color="#ffffff" stop-opacity="0" id="oryx_49587DE3-73C0-4973-B0CB-91A8419F6CF3_oryx_49587DE3-73C0-4973-B0CB-91A8419F6CF3_4"/>       </radialGradient>      </defs>    <rect id="oryx_49587DE3-73C0-4973-B0CB-91A8419F6CF3bg_frame" oryx:anchors="left top" x="0" y="0" width="969" height="68" stroke="none" fill="url(#oryx_49587DE3-73C0-4973-B0CB-91A8419F6CF3transparent)" class="transparent"/>      <g id="oryx_49587DE3-73C0-4973-B0CB-91A8419F6CF3b" stroke="#777777">    <rect id="oryx_49587DE3-73C0-4973-B0CB-91A8419F6CF3input" oryx:anchors="left top" oryx:resize="vertical horizontal" x="0" y="0" width="969" height="68" stroke-width="1" fill="#ffffff"/>    <text id="oryx_49587DE3-73C0-4973-B0CB-91A8419F6CF3input_text" oryx:anchors="left top" oryx:align="middle left" halign="center" valign="middle" font-size="11" x="484" y="34" refX="0" refY="0" stroke="black" fill="gray" font-style="italic" stroke-width="0pt" letter-spacing="0.0012716883085272925px" oryx:fontSize="11" transform="rotate(0 484 34)" text-anchor="start"/>    <path id="oryx_49587DE3-73C0-4973-B0CB-91A8419F6CF3input_dependent" oryx:anchors="right top" d=" M950 11  h10  M955 6  v10  M949 11  Q955 22 961 11  M949 11  Q955 0 961 11 " refX="-20" refY="0" stroke="black" fill="none" original-stroke="black" original-fill="none" display="none"/>   </g>      <g id="oryx_49587DE3-73C0-4973-B0CB-91A8419F6CF3a">    <rect id="oryx_49587DE3-73C0-4973-B0CB-91A8419F6CF3label" oryx:anchors="left top" x="1" y="0" width="85.20833587646484" height="24" stroke="none" fill="url(#oryx_49587DE3-73C0-4973-B0CB-91A8419F6CF3transparent)" class="transparent"/>     <text id="oryx_49587DE3-73C0-4973-B0CB-91A8419F6CF3label_text" oryx:anchors="left top" oryx:align="middle left" font-size="11" x="11" y="12" stroke="black" stroke-width="0pt" letter-spacing="0.004520410274432392px" oryx:fontSize="11" transform="rotate(0 11 12)" text-anchor="start"><tspan dy="4" x="11" y="12">Customer Details</tspan></text>   </g>      <g id="oryx_49587DE3-73C0-4973-B0CB-91A8419F6CF3c" transform="translate(1,8)">    <path id="oryx_49587DE3-73C0-4973-B0CB-91A8419F6CF3mandatory_Indicator" oryx:anchors="middle left" d=" m15.30275 14.503956000000002  l-2.49912 0  l-0.77223 2.37422  l-0.77227 -2.37422  l-2.49912 0  l2.02183 -1.46721  l-0.77229 -2.37417  l2.02184 1.46732  l2.02183 -1.46732  l-0.77232 2.37417  l2.02184 1.46721  z" stroke="#ff0000" fill="#ff0000" display="none" style="cursor:pointer" original-stroke="#ff0000" original-fill="#ff0000"/>   </g>      <g id="oryx_49587DE3-73C0-4973-B0CB-91A8419F6CF3pin" oryx:anchors="bottom" stroke="#777777" display="none">    <path id="oryx_49587DE3-73C0-4973-B0CB-91A8419F6CF3input_pin" oryx:anchors="center bottom" x="20" y="20" width="24" height="24" d=" M461.5 66  L464.5 61  L460.5 59  L461.5 57  L464.5 57  L468.5 52  L471.5 54  L468.5 59  L469.5 62  L468.5 64  L464.5 61  L461.5 66 " fill="url(#oryx_49587DE3-73C0-4973-B0CB-91A8419F6CF3transparent)" class="transparent"/>   </g>      <a id="oryx_49587DE3-73C0-4973-B0CB-91A8419F6CF3u" target="FORM_MODEL-67308bb1-cf92-4ea0-8b42-06a4932dcd01" style="cursor:pointer;" display="none" stroke="#777777" xlink:href="">     <g id="oryx_49587DE3-73C0-4973-B0CB-91A8419F6CF3bg" oryx:anchors="bottom">     <path id="oryx_49587DE3-73C0-4973-B0CB-91A8419F6CF3input_u" oryx:anchors="center bottom" x="0" y="0" width="24" height="24" d=" M478.5 56  L490.5 56  L490.5 68  L478.5 68  z M484.5 57  v10  M479.5 62  h10 " fill="url(#oryx_49587DE3-73C0-4973-B0CB-91A8419F6CF3transparent)" class="transparent" display="none"/>     <text id="oryx_49587DE3-73C0-4973-B0CB-91A8419F6CF3input_u_text" text-decoration="underline" style="cursor:pointer;" font-size="11" x="484" y="73" refX="0" refY="0" fill="blue" font-style="italic" display="inherit" stroke-width="0pt" letter-spacing="0.0019346045398940608px" oryx:fontSize="11" transform="rotate(0 484 73)" text-anchor="start"><tspan dy="0" x="484" y="73" style="cursor:pointer">Customer start form</tspan></text>    </g>   </a>   </g></g><g class="children" style="overflow:hidden"/><g class="edge"/><path id="warningId-oryx_49587DE3-73C0-4973-B0CB-91A8419F6CF3" class="validationError" title="" stroke-width="1" stroke="red" fill="white" d="M5,-5 L20,-5 L12,-20 z M12,-15 L12,-10 M12,-9 L12,-7" line-captions="round" style="cursor:pointer" data-html="true" display="none"/></g><g class="controls"><g class="dockers"/><g class="magnets" transform="translate(15, 25)"><g pointer-events="all" display="none" transform="translate(476.5, 26)"><circle cx="8" cy="8" r="4" stroke="none" fill="red" fill-opacity="0.3"/></g></g></g></g></g><g class="edge"/><g class="panelcell" display="none"><rect x="0" y="0" stroke-width="2" stroke="#00ff00" fill="none" pointer-events="none"/></g><path id="warningId-oryx_A00D30B8-48A4-4CCA-A4FE-796A5682951A" class="validationError" title="" stroke-width="1" stroke="red" fill="white" d="M5,-5 L20,-5 L12,-20 z M12,-15 L12,-10 M12,-9 L12,-7" line-captions="round" style="cursor:pointer" data-html="true" display="none"/></g><g class="controls"><g class="dockers"/><g class="magnets" transform="translate(50, 50)"><g pointer-events="all" display="none" transform="translate(491.5000000000001, 87.5)"><circle cx="8" cy="8" r="4" stroke="none" fill="red" fill-opacity="0.3"/></g></g></g></g></g><g class="edge"/></g></g></svg>