<svg xmlns="http://www.w3.org/2000/svg" xmlns:oryx="http://oryx-editor.org" id="oryx_8729F88A-9CA4-4A6A-A6B8-9B8E791614BB" width="1049" height="460" xmlns:xlink="http://www.w3.org/1999/xlink" xmlns:svg="http://www.w3.org/2000/svg"><defs/><g stroke="black" font-family="arial,sans-serif" font-size-adjust="none" font-style="normal" font-variant="normal" font-weight="normal" line-heigth="normal" font-size="12"><g class="stencils" transform="translate(-25, -25)"><g class="me"/><g class="children"><g id="svg-panel1"><g class="stencils" transform="translate(50, 50)"><g class="me"><g oryx:minimumSize="40 34" id="oryx_F8C6706C-32CA-4293-9E05-FCDC3936AD8A" title="SlotPanel">     <rect id="oryx_F8C6706C-32CA-4293-9E05-FCDC3936AD8Ainput" oryx:anchors="left top" oryx:resize="vertical horizontal" x="0" y="0" width="999.0000000000001" height="410" stroke="#777777" stroke-width="1" fill="#ffffff"/>   </g></g><g class="background"><g class="cellBg" display="inherit" transform="translate(11, 333)"><rect x="0" y="0" stroke-width="2" stroke="none" fill="#ffffff" pointer-events="all" width="977" height="56"/></g><g class="cellBg" display="inherit" transform="translate(11, 333)"><rect x="0" y="0" stroke-width="2" stroke="none" fill="#ffffff" pointer-events="all" width="977" height="56"/></g><g class="cellBg" display="inherit" transform="translate(11, 333)"><rect x="0" y="0" stroke-width="2" stroke="none" fill="#ffffff" pointer-events="all" width="977" height="56"/></g><g class="cellBg" display="inherit" transform="translate(11, 333)"><rect x="0" y="0" stroke-width="2" stroke="none" fill="#ffffff" pointer-events="all" width="977" height="56"/></g><g class="cellBg" display="inherit" transform="translate(11, 333)"><rect x="0" y="0" stroke-width="2" stroke="none" fill="#ffffff" pointer-events="all" width="977" height="56"/></g><g class="cellBg" display="inherit" transform="translate(11, 333)"><rect x="0" y="0" stroke-width="2" stroke="none" fill="#ffffff" pointer-events="all" width="977" height="56"/></g><g class="cellBg" display="inherit" transform="translate(11, 260)"><rect x="0" y="0" stroke-width="2" stroke="none" fill="#ffffff" pointer-events="all" width="977" height="56"/></g><g class="cellBg" display="inherit" transform="translate(11, 260)"><rect x="0" y="0" stroke-width="2" stroke="none" fill="#ffffff" pointer-events="all" width="977" height="56"/></g><g class="cellBg" display="inherit" transform="translate(11, 260)"><rect x="0" y="0" stroke-width="2" stroke="none" fill="#ffffff" pointer-events="all" width="977" height="56"/></g><g class="cellBg" display="inherit" transform="translate(11, 260)"><rect x="0" y="0" stroke-width="2" stroke="none" fill="#ffffff" pointer-events="all" width="977" height="56"/></g><g class="cellBg" display="inherit" transform="translate(11, 260)"><rect x="0" y="0" stroke-width="2" stroke="none" fill="#ffffff" pointer-events="all" width="977" height="56"/></g><g class="cellBg" display="inherit" transform="translate(11, 260)"><rect x="0" y="0" stroke-width="2" stroke="none" fill="#ffffff" pointer-events="all" width="977" height="56"/></g><g class="cellBg" display="inherit" transform="translate(11, 167)"><rect x="0" y="0" stroke-width="2" stroke="none" fill="#ffffff" pointer-events="all" width="977" height="76"/></g><g class="cellBg" display="inherit" transform="translate(11, 167)"><rect x="0" y="0" stroke-width="2" stroke="none" fill="#ffffff" pointer-events="all" width="977" height="76"/></g><g class="cellBg" display="inherit" transform="translate(11, 167)"><rect x="0" y="0" stroke-width="2" stroke="none" fill="#ffffff" pointer-events="all" width="977" height="76"/></g><g class="cellBg" display="inherit" transform="translate(11, 167)"><rect x="0" y="0" stroke-width="2" stroke="none" fill="#ffffff" pointer-events="all" width="977" height="76"/></g><g class="cellBg" display="inherit" transform="translate(11, 167)"><rect x="0" y="0" stroke-width="2" stroke="none" fill="#ffffff" pointer-events="all" width="977" height="76"/></g><g class="cellBg" display="inherit" transform="translate(11, 167)"><rect x="0" y="0" stroke-width="2" stroke="none" fill="#ffffff" pointer-events="all" width="977" height="76"/></g><g class="cellBg" display="inherit" transform="translate(11, 94)"><rect x="0" y="0" stroke-width="2" stroke="none" fill="#ffffff" pointer-events="all" width="977" height="56"/></g><g class="cellBg" display="inherit" transform="translate(11, 94)"><rect x="0" y="0" stroke-width="2" stroke="none" fill="#ffffff" pointer-events="all" width="977" height="56"/></g><g class="cellBg" display="inherit" transform="translate(11, 94)"><rect x="0" y="0" stroke-width="2" stroke="none" fill="#ffffff" pointer-events="all" width="977" height="56"/></g><g class="cellBg" display="inherit" transform="translate(11, 94)"><rect x="0" y="0" stroke-width="2" stroke="none" fill="#ffffff" pointer-events="all" width="977" height="56"/></g><g class="cellBg" display="inherit" transform="translate(11, 94)"><rect x="0" y="0" stroke-width="2" stroke="none" fill="#ffffff" pointer-events="all" width="977" height="56"/></g><g class="cellBg" display="inherit" transform="translate(11, 94)"><rect x="0" y="0" stroke-width="2" stroke="none" fill="#ffffff" pointer-events="all" width="977" height="56"/></g><g class="cellBg" display="inherit" transform="translate(11, 21)"><rect x="0" y="0" stroke-width="2" stroke="none" fill="#ffffff" pointer-events="all" width="977" height="58"/></g><g class="cellBg" display="inherit" transform="translate(11, 21)"><rect x="0" y="0" stroke-width="2" stroke="none" fill="#ffffff" pointer-events="all" width="977" height="58"/></g><g class="cellBg" display="inherit" transform="translate(11, 21)"><rect x="0" y="0" stroke-width="2" stroke="none" fill="#ffffff" pointer-events="all" width="977" height="58"/></g><g class="cellBg" display="inherit" transform="translate(11, 21)"><rect x="0" y="0" stroke-width="2" stroke="none" fill="#ffffff" pointer-events="all" width="977" height="58"/></g><g class="cellBg" display="inherit" transform="translate(11, 21)"><rect x="0" y="0" stroke-width="2" stroke="none" fill="#ffffff" pointer-events="all" width="977" height="58"/></g><g class="cellBg" display="inherit" transform="translate(11, 21)"><rect x="0" y="0" stroke-width="2" stroke="none" fill="#ffffff" pointer-events="all" width="977" height="58"/></g><g class="cellBg" display="inherit" transform="translate(11, 21)"><rect x="0" y="0" stroke-width="2" stroke="none" fill="#ffffff" pointer-events="all" width="977" height="58"/></g><g class="cellBg" display="inherit" transform="translate(11, 21)"><rect x="0" y="0" stroke-width="2" stroke="none" fill="#ffffff" pointer-events="all" width="977" height="58"/></g><g class="cellBg" display="inherit" transform="translate(11, 21)"><rect x="0" y="0" stroke-width="2" stroke="none" fill="#ffffff" pointer-events="all" width="977" height="58"/></g><g class="cellBg" display="inherit" transform="translate(11, 21)"><rect x="0" y="0" stroke-width="2" stroke="none" fill="#ffffff" pointer-events="all" width="977" height="58"/></g><g class="cellBg" display="inherit" transform="translate(11, 21)"><rect x="0" y="0" stroke-width="2" stroke="none" fill="#ffffff" pointer-events="all" width="977" height="58"/></g><g class="cellBg" display="inherit" transform="translate(11, 21)"><rect x="0" y="0" stroke-width="2" stroke="none" fill="#ffffff" pointer-events="all" width="977" height="58"/></g><g class="cellBg" display="inherit" transform="translate(11, 94)"><rect x="0" y="0" stroke-width="2" stroke="none" fill="#ffffff" pointer-events="all" width="977" height="56"/></g><g class="cellBg" display="inherit" transform="translate(11, 94)"><rect x="0" y="0" stroke-width="2" stroke="none" fill="#ffffff" pointer-events="all" width="977" height="56"/></g><g class="cellBg" display="inherit" transform="translate(11, 94)"><rect x="0" y="0" stroke-width="2" stroke="none" fill="#ffffff" pointer-events="all" width="977" height="56"/></g><g class="cellBg" display="inherit" transform="translate(11, 94)"><rect x="0" y="0" stroke-width="2" stroke="none" fill="#ffffff" pointer-events="all" width="977" height="56"/></g><g class="cellBg" display="inherit" transform="translate(11, 94)"><rect x="0" y="0" stroke-width="2" stroke="none" fill="#ffffff" pointer-events="all" width="977" height="56"/></g><g class="cellBg" display="inherit" transform="translate(11, 94)"><rect x="0" y="0" stroke-width="2" stroke="none" fill="#ffffff" pointer-events="all" width="977" height="56"/></g><g class="cellBg" display="inherit" transform="translate(11, 167)"><rect x="0" y="0" stroke-width="2" stroke="none" fill="#ffffff" pointer-events="all" width="977" height="76"/></g><g class="cellBg" display="inherit" transform="translate(11, 167)"><rect x="0" y="0" stroke-width="2" stroke="none" fill="#ffffff" pointer-events="all" width="977" height="76"/></g><g class="cellBg" display="inherit" transform="translate(11, 167)"><rect x="0" y="0" stroke-width="2" stroke="none" fill="#ffffff" pointer-events="all" width="977" height="76"/></g><g class="cellBg" display="inherit" transform="translate(11, 167)"><rect x="0" y="0" stroke-width="2" stroke="none" fill="#ffffff" pointer-events="all" width="977" height="76"/></g><g class="cellBg" display="inherit" transform="translate(11, 167)"><rect x="0" y="0" stroke-width="2" stroke="none" fill="#ffffff" pointer-events="all" width="977" height="76"/></g><g class="cellBg" display="inherit" transform="translate(11, 167)"><rect x="0" y="0" stroke-width="2" stroke="none" fill="#ffffff" pointer-events="all" width="977" height="76"/></g><g class="cellBg" display="inherit" transform="translate(11, 260)"><rect x="0" y="0" stroke-width="2" stroke="none" fill="#ffffff" pointer-events="all" width="977" height="56"/></g><g class="cellBg" display="inherit" transform="translate(11, 260)"><rect x="0" y="0" stroke-width="2" stroke="none" fill="#ffffff" pointer-events="all" width="977" height="56"/></g><g class="cellBg" display="inherit" transform="translate(11, 260)"><rect x="0" y="0" stroke-width="2" stroke="none" fill="#ffffff" pointer-events="all" width="977" height="56"/></g><g class="cellBg" display="inherit" transform="translate(11, 260)"><rect x="0" y="0" stroke-width="2" stroke="none" fill="#ffffff" pointer-events="all" width="977" height="56"/></g><g class="cellBg" display="inherit" transform="translate(11, 260)"><rect x="0" y="0" stroke-width="2" stroke="none" fill="#ffffff" pointer-events="all" width="977" height="56"/></g><g class="cellBg" display="inherit" transform="translate(11, 260)"><rect x="0" y="0" stroke-width="2" stroke="none" fill="#ffffff" pointer-events="all" width="977" height="56"/></g><g class="cellBg" display="inherit" transform="translate(11, 333)"><rect x="0" y="0" stroke-width="2" stroke="none" fill="#ffffff" pointer-events="all" width="977" height="56"/></g><g class="cellBg" display="inherit" transform="translate(11, 333)"><rect x="0" y="0" stroke-width="2" stroke="none" fill="#ffffff" pointer-events="all" width="977" height="56"/></g><g class="cellBg" display="inherit" transform="translate(11, 333)"><rect x="0" y="0" stroke-width="2" stroke="none" fill="#ffffff" pointer-events="all" width="977" height="56"/></g><g class="cellBg" display="inherit" transform="translate(11, 333)"><rect x="0" y="0" stroke-width="2" stroke="none" fill="#ffffff" pointer-events="all" width="977" height="56"/></g><g class="cellBg" display="inherit" transform="translate(11, 333)"><rect x="0" y="0" stroke-width="2" stroke="none" fill="#ffffff" pointer-events="all" width="977" height="56"/></g><g class="cellBg" display="inherit" transform="translate(11, 333)"><rect x="0" y="0" stroke-width="2" stroke="none" fill="#ffffff" pointer-events="all" width="977" height="56"/></g><g class="columnBackground split" display="none"><rect x="0" y="0" stroke="none" fill="#ffffff" pointer-events="none"/></g></g><g class="gridline"><g class="panelgridline" display="inherit"><path stroke-width="1" stroke="silver" fill="none" stroke-dasharray="4,2" pointer-events="none" d="M0 21 L 999.0000000000001 21"/></g><g class="panelgridline" display="inherit"><path stroke-width="1" stroke="silver" fill="none" stroke-dasharray="4,2" pointer-events="none" d="M0 79 L 999.0000000000001 79"/></g><g class="panelgridline" display="inherit"><path stroke-width="1" stroke="silver" fill="none" stroke-dasharray="4,2" pointer-events="none" d="M0 94 L 999.0000000000001 94"/></g><g class="panelgridline" display="inherit"><path stroke-width="1" stroke="silver" fill="none" stroke-dasharray="4,2" pointer-events="none" d="M0 150 L 999.0000000000001 150"/></g><g class="panelgridline" display="inherit"><path stroke-width="1" stroke="silver" fill="none" stroke-dasharray="4,2" pointer-events="none" d="M0 167 L 999.0000000000001 167"/></g><g class="panelgridline" display="inherit"><path stroke-width="1" stroke="silver" fill="none" stroke-dasharray="4,2" pointer-events="none" d="M0 243 L 999.0000000000001 243"/></g><g class="panelgridline" display="inherit"><path stroke-width="1" stroke="silver" fill="none" stroke-dasharray="4,2" pointer-events="none" d="M0 260 L 999.0000000000001 260"/></g><g class="panelgridline" display="inherit"><path stroke-width="1" stroke="silver" fill="none" stroke-dasharray="4,2" pointer-events="none" d="M0 316 L 999.0000000000001 316"/></g><g class="panelgridline" display="inherit"><path stroke-width="1" stroke="silver" fill="none" stroke-dasharray="4,2" pointer-events="none" d="M0 333 L 999.0000000000001 333"/></g><g class="panelgridline" display="inherit"><path stroke-width="1" stroke="silver" fill="none" stroke-dasharray="4,2" pointer-events="none" d="M0 389 L 999.0000000000001 389"/></g><g class="panelgridline" display="inherit"><path stroke-width="1" stroke="silver" fill="none" stroke-dasharray="4,2" pointer-events="none" d="M11 0 L 11 410"/></g><g class="panelgridline" display="inherit"><path stroke-width="1" stroke="silver" fill="none" stroke-dasharray="4,2" pointer-events="none" d="M86 0 L 86 410"/></g><g class="panelgridline" display="inherit"><path stroke-width="1" stroke="silver" fill="none" stroke-dasharray="4,2" pointer-events="none" d="M93 0 L 93 410"/></g><g class="panelgridline" display="inherit"><path stroke-width="1" stroke="silver" fill="none" stroke-dasharray="4,2" pointer-events="none" d="M168 0 L 168 410"/></g><g class="panelgridline" display="inherit"><path stroke-width="1" stroke="silver" fill="none" stroke-dasharray="4,2" pointer-events="none" d="M175 0 L 175 410"/></g><g class="panelgridline" display="inherit"><path stroke-width="1" stroke="silver" fill="none" stroke-dasharray="4,2" pointer-events="none" d="M250 0 L 250 410"/></g><g class="panelgridline" display="inherit"><path stroke-width="1" stroke="silver" fill="none" stroke-dasharray="4,2" pointer-events="none" d="M257 0 L 257 410"/></g><g class="panelgridline" display="inherit"><path stroke-width="1" stroke="silver" fill="none" stroke-dasharray="4,2" pointer-events="none" d="M332 0 L 332 410"/></g><g class="panelgridline" display="inherit"><path stroke-width="1" stroke="silver" fill="none" stroke-dasharray="4,2" pointer-events="none" d="M339 0 L 339 410"/></g><g class="panelgridline" display="inherit"><path stroke-width="1" stroke="silver" fill="none" stroke-dasharray="4,2" pointer-events="none" d="M414 0 L 414 410"/></g><g class="panelgridline" display="inherit"><path stroke-width="1" stroke="silver" fill="none" stroke-dasharray="4,2" pointer-events="none" d="M421 0 L 421 410"/></g><g class="panelgridline" display="inherit"><path stroke-width="1" stroke="silver" fill="none" stroke-dasharray="4,2" pointer-events="none" d="M496 0 L 496 410"/></g><g class="panelgridline" display="inherit"><path stroke-width="1" stroke="silver" fill="none" stroke-dasharray="4,2" pointer-events="none" d="M503 0 L 503 410"/></g><g class="panelgridline" display="inherit"><path stroke-width="1" stroke="silver" fill="none" stroke-dasharray="4,2" pointer-events="none" d="M578 0 L 578 410"/></g><g class="panelgridline" display="inherit"><path stroke-width="1" stroke="silver" fill="none" stroke-dasharray="4,2" pointer-events="none" d="M585 0 L 585 410"/></g><g class="panelgridline" display="inherit"><path stroke-width="1" stroke="silver" fill="none" stroke-dasharray="4,2" pointer-events="none" d="M660 0 L 660 410"/></g><g class="panelgridline" display="inherit"><path stroke-width="1" stroke="silver" fill="none" stroke-dasharray="4,2" pointer-events="none" d="M667 0 L 667 410"/></g><g class="panelgridline" display="inherit"><path stroke-width="1" stroke="silver" fill="none" stroke-dasharray="4,2" pointer-events="none" d="M742 0 L 742 410"/></g><g class="panelgridline" display="inherit"><path stroke-width="1" stroke="silver" fill="none" stroke-dasharray="4,2" pointer-events="none" d="M749 0 L 749 410"/></g><g class="panelgridline" display="inherit"><path stroke-width="1" stroke="silver" fill="none" stroke-dasharray="4,2" pointer-events="none" d="M824 0 L 824 410"/></g><g class="panelgridline" display="inherit"><path stroke-width="1" stroke="silver" fill="none" stroke-dasharray="4,2" pointer-events="none" d="M831 0 L 831 410"/></g><g class="panelgridline" display="inherit"><path stroke-width="1" stroke="silver" fill="none" stroke-dasharray="4,2" pointer-events="none" d="M906 0 L 906 410"/></g><g class="panelgridline" display="inherit"><path stroke-width="1" stroke="silver" fill="none" stroke-dasharray="4,2" pointer-events="none" d="M913 0 L 913 410"/></g><g class="panelgridline" display="inherit"><path stroke-width="1" stroke="silver" fill="none" stroke-dasharray="4,2" pointer-events="none" d="M988 0 L 988 410"/></g><g class="panelgridline" display="none"><path stroke-width="1" stroke="silver" fill="none" stroke-dasharray="4,2" pointer-events="none"/></g><g class="panelgridline" display="none"><path stroke-width="1" stroke="silver" fill="none" stroke-dasharray="4,2" pointer-events="none"/></g></g><g class="children" style="overflow:hidden"><g id="svg-output1"><g class="stencils" transform="translate(15, 25)"><g class="me"><g oryx:minimumSize="28 50" id="oryx_DA5BFE19-9134-461E-9491-08C210BD42F6" title="cloud-output">   <defs id="oryx_DA5BFE19-9134-461E-9491-08C210BD42F6_oryx_DA5BFE19-9134-461E-9491-08C210BD42F6_2">       <radialGradient id="oryx_DA5BFE19-9134-461E-9491-08C210BD42F6transparent" cx="10%" cy="10%" r="100%" fx="10%" fy="10%">     <stop offset="0%" stop-color="#ffffff" stop-opacity="0" id="oryx_DA5BFE19-9134-461E-9491-08C210BD42F6_oryx_DA5BFE19-9134-461E-9491-08C210BD42F6_3"/>     <stop offset="100%" stop-color="#ffffff" stop-opacity="0" id="oryx_DA5BFE19-9134-461E-9491-08C210BD42F6_oryx_DA5BFE19-9134-461E-9491-08C210BD42F6_4"/>       </radialGradient>   </defs>      <rect id="oryx_DA5BFE19-9134-461E-9491-08C210BD42F6bg_frame" oryx:anchors="left top" x="0" y="0" width="969" height="48" stroke="none" fill="url(#oryx_DA5BFE19-9134-461E-9491-08C210BD42F6transparent)" class="transparent"/>      <g id="oryx_DA5BFE19-9134-461E-9491-08C210BD42F6a">    <rect id="oryx_DA5BFE19-9134-461E-9491-08C210BD42F6label" oryx:anchors="left top" x="0" y="0" width="0" height="24" stroke="none" fill="url(#oryx_DA5BFE19-9134-461E-9491-08C210BD42F6transparent)" class="transparent" display="none"/>     <text id="oryx_DA5BFE19-9134-461E-9491-08C210BD42F6label_text" oryx:anchors="left top" oryx:align="middle left" font-size="11" x="5" y="12" stroke="black" stroke-width="0pt" letter-spacing="0.009218337437400847px" oryx:fontSize="11" display="none" transform="rotate(0 5 12)" text-anchor="start"/>   </g>     <g id="oryx_DA5BFE19-9134-461E-9491-08C210BD42F6b" stroke="#000000">     <rect id="oryx_DA5BFE19-9134-461E-9491-08C210BD42F6input" oryx:anchors="left top" fill="#F5F5F5" stroke-dasharray="10,2" x="0" y="0" height="48" width="969"/>     <path id="oryx_DA5BFE19-9134-461E-9491-08C210BD42F6input_dependent" oryx:anchors="left top" d=" M5 5  L23 5  L23 23  L5 23  L5 5  M8 9  L15 9  M11.5 9  L11.5 14  M15 13  L19.5 13  z M7.5 16  L20.5 16  M8 19  L20 19  z" stroke="black" fill="none" display="inherit" original-stroke="black" original-fill="none"/>        <text id="oryx_DA5BFE19-9134-461E-9491-08C210BD42F6input_text" oryx:anchors="left top" oryx:align="top left" font-size="11" x="30" y="18" refX="25" refY="6" stroke="black" fill="gray" font-style="italic" stroke-width="0pt" letter-spacing="0.0026996864024013702px" oryx:fontSize="11" transform="rotate(0 30 18)" text-anchor="start"><tspan dy="11" x="30" y="18">&lt;p&gt;Review loan request application &lt;/p&gt;...</tspan></text>   </g>      <g id="oryx_DA5BFE19-9134-461E-9491-08C210BD42F6c" transform="translate(1,8)">    <path id="oryx_DA5BFE19-9134-461E-9491-08C210BD42F6mandatory_Indicator" oryx:anchors="middle left" d="m14.30275,11.94655l-2.49912,0l-0.77223,2.37422l-0.77227,-2.37422l-2.49912,0l2.02183,-1.46721l-0.77229,-2.37417l2.02184,1.46732l2.02183,-1.46732l-0.77232,2.37417l2.02184,1.46721z" stroke="#ff0000" fill="#ff0000" display="none" style="cursor:pointer" original-stroke="#ff0000" original-fill="#ff0000"/>   </g>     <g id="oryx_DA5BFE19-9134-461E-9491-08C210BD42F6d">    <path id="oryx_DA5BFE19-9134-461E-9491-08C210BD42F6feedback_Indicator" oryx:anchors="left top" d="M300,15 320,15 310,0 Z M310 4 L310 10 Z M310 11 L310 13 Z" stroke="black" fill="#ff0000" display="none"/>   </g>      <g id="oryx_DA5BFE19-9134-461E-9491-08C210BD42F6e">    <rect id="oryx_DA5BFE19-9134-461E-9491-08C210BD42F6desc" oryx:anchors="left top" stroke="none" fill="url(#oryx_DA5BFE19-9134-461E-9491-08C210BD42F6transparent)" x="0" y="0" height="24" width="969" display="none" class="transparent"/>    <text id="oryx_DA5BFE19-9134-461E-9491-08C210BD42F6desc_text" oryx:anchors="left top" oryx:align="middle left" font-size="11" x="0" y="12" stroke="black" fill="gray" font-style="italic" display="none" stroke-width="0pt" letter-spacing="0.0033389617774027018px" oryx:fontSize="11" transform="rotate(0 0 12)" text-anchor="start"/>   </g>  </g></g><g class="children" style="overflow:hidden"/><g class="edge"/><path id="warningId-oryx_DA5BFE19-9134-461E-9491-08C210BD42F6" class="validationError" title="" stroke-width="1" stroke="red" fill="white" d="M5,-5 L20,-5 L12,-20 z M12,-15 L12,-10 M12,-9 L12,-7" line-captions="round" style="cursor:pointer" data-html="true" display="none"/></g><g class="controls"><g class="dockers"/><g class="magnets" transform="translate(15, 25)"><g pointer-events="all" display="none" transform="translate(476.5, 18.041666666666668)"><circle cx="8" cy="8" r="4" stroke="none" fill="red" fill-opacity="0.3"/></g></g></g></g><g id="svg-user-auto-complete1"><g class="stencils" transform="translate(15, 98)"><g class="me"><g oryx:minimumSize="25 26" id="oryx_FB9972AE-24A4-4863-A225-7EF6BFFC8856" title="user-auto-complete">   <defs id="oryx_FB9972AE-24A4-4863-A225-7EF6BFFC8856_oryx_FB9972AE-24A4-4863-A225-7EF6BFFC8856_2">       <marker id="oryx_FB9972AE-24A4-4863-A225-7EF6BFFC8856search_marker" refX="25" refY="0" markerWidth="20" markerHeight="24">         <path d="M1 1 L1 23 Z M7 5 A 4 4 0 0 0 16 16 M7 5 A 4 4 0 0 1 16 16 M 16 16 L 22 22 Z M 16 15 L 22 21 Z" oryx:anchors="left top" fill="none" id="oryx_FB9972AE-24A4-4863-A225-7EF6BFFC8856_oryx_FB9972AE-24A4-4863-A225-7EF6BFFC8856_3"/>    </marker>    <radialGradient id="oryx_FB9972AE-24A4-4863-A225-7EF6BFFC8856transparent" cx="10%" cy="10%" r="100%" fx="10%" fy="10%">     <stop offset="0%" stop-color="#ffffff" stop-opacity="0" id="oryx_FB9972AE-24A4-4863-A225-7EF6BFFC8856_oryx_FB9972AE-24A4-4863-A225-7EF6BFFC8856_4"/>     <stop offset="100%" stop-color="#ffffff" stop-opacity="0" id="oryx_FB9972AE-24A4-4863-A225-7EF6BFFC8856_oryx_FB9972AE-24A4-4863-A225-7EF6BFFC8856_5"/>       </radialGradient>      </defs>      <rect id="oryx_FB9972AE-24A4-4863-A225-7EF6BFFC8856bg_frame" oryx:anchors="left top" x="0" y="0" width="969" height="48" stroke="none" fill="url(#oryx_FB9972AE-24A4-4863-A225-7EF6BFFC8856transparent)" class="transparent"/>    <g id="oryx_FB9972AE-24A4-4863-A225-7EF6BFFC8856a">    <rect id="oryx_FB9972AE-24A4-4863-A225-7EF6BFFC8856label" oryx:anchors="left top" x="0" y="0" width="964" height="24" stroke="none" fill="url(#oryx_FB9972AE-24A4-4863-A225-7EF6BFFC8856transparent)" class="transparent"/>    <text id="oryx_FB9972AE-24A4-4863-A225-7EF6BFFC8856label_text" oryx:anchors="left top" oryx:align="middle left" font-size="11" x="5" y="12" stroke="black" stroke-width="0pt" letter-spacing="0.00508494643117747px" oryx:fontSize="11" transform="rotate(0 5 12)" text-anchor="start"><tspan dy="4" x="5" y="12">Applicant</tspan></text>   </g>      <g id="oryx_FB9972AE-24A4-4863-A225-7EF6BFFC8856b">       <path id="oryx_FB9972AE-24A4-4863-A225-7EF6BFFC8856input" oryx:anchors="left top" d=" M969 24  L969 48  L0 48  L0 24  L969 24  z" marker-end="url(#oryx_FB9972AE-24A4-4863-A225-7EF6BFFC8856search_marker)" fill="none" style="opacity:0.9999;"/>             <text id="oryx_FB9972AE-24A4-4863-A225-7EF6BFFC8856input_text" oryx:anchors="left top" oryx:align="middle left" font-size="11" x="5" y="36" stroke="black" fill="gray" font-style="italic" stroke-width="0pt" letter-spacing="0.009561841975089622px" oryx:fontSize="11" transform="rotate(0 5 36)" text-anchor="start"><tspan dy="4" x="5" y="36">{{initiator}}</tspan></text>   </g>      <g id="oryx_FB9972AE-24A4-4863-A225-7EF6BFFC8856c" transform="translate(1,8)">    <path id="oryx_FB9972AE-24A4-4863-A225-7EF6BFFC8856mandatory_Indicator" oryx:anchors="middle left" d=" m14.30275 21.434447692307693  l-2.49912 0  l-0.77223 2.37422  l-0.77227 -2.37422  l-2.49912 0  l2.02183 -1.46721  l-0.77229 -2.37417  l2.02184 1.46732  l2.02183 -1.46732  l-0.77232 2.37417  l2.02184 1.46721  z" stroke="#ff0000" fill="#ff0000" display="none" style="cursor:pointer" original-stroke="#ff0000" original-fill="#ff0000"/>   </g>      <g id="oryx_FB9972AE-24A4-4863-A225-7EF6BFFC8856d">    <path id="oryx_FB9972AE-24A4-4863-A225-7EF6BFFC8856feedback_Indicator" oryx:anchors="left top" d="M300,15 320,15 310,0 Z M310 4 L310 10 Z M310 11 L310 13 Z" stroke="black" fill="#ff0000" display="none"/>   </g>        <g id="oryx_FB9972AE-24A4-4863-A225-7EF6BFFC8856e">    <rect id="oryx_FB9972AE-24A4-4863-A225-7EF6BFFC8856desc" oryx:anchors="left top" stroke="none" fill="url(#oryx_FB9972AE-24A4-4863-A225-7EF6BFFC8856transparent)" x="0" y="0" height="24" width="969" display="none" class="transparent"/>    <text id="oryx_FB9972AE-24A4-4863-A225-7EF6BFFC8856desc_text" oryx:anchors="left top" oryx:align="middle left" font-size="11" x="0" y="12" stroke="black" fill="gray" font-style="italic" display="none" stroke-width="0pt" letter-spacing="0.004908794866101876px" oryx:fontSize="11" transform="rotate(0 0 12)" text-anchor="start"/>   </g>       </g></g><g class="children" style="overflow:hidden"/><g class="edge"/><path id="warningId-oryx_FB9972AE-24A4-4863-A225-7EF6BFFC8856" class="validationError" title="" stroke-width="1" stroke="red" fill="white" d="M5,-5 L20,-5 L12,-20 z M12,-15 L12,-10 M12,-9 L12,-7" line-captions="round" style="cursor:pointer" data-html="true" display="none"/></g><g class="controls"><g class="dockers"/><g class="magnets" transform="translate(15, 98)"><g pointer-events="all" display="none" transform="translate(476.5, 16)"><circle cx="8" cy="8" r="4" stroke="none" fill="red" fill-opacity="0.3"/></g></g></g></g><g id="svg-sub-form1"><g class="stencils" transform="translate(15, 171)"><g class="me"><g oryx:minimumSize="24 26" id="oryx_490DE310-DAEA-40CD-8B6F-FE705956E8DD" title="cloud-sub-form">         <defs id="oryx_490DE310-DAEA-40CD-8B6F-FE705956E8DD_oryx_490DE310-DAEA-40CD-8B6F-FE705956E8DD_2">    <radialGradient id="oryx_490DE310-DAEA-40CD-8B6F-FE705956E8DDtransparent" cx="10%" cy="10%" r="100%" fx="10%" fy="10%">     <stop offset="0%" stop-color="#ffffff" stop-opacity="0" id="oryx_490DE310-DAEA-40CD-8B6F-FE705956E8DD_oryx_490DE310-DAEA-40CD-8B6F-FE705956E8DD_3"/>     <stop offset="100%" stop-color="#ffffff" stop-opacity="0" id="oryx_490DE310-DAEA-40CD-8B6F-FE705956E8DD_oryx_490DE310-DAEA-40CD-8B6F-FE705956E8DD_4"/>       </radialGradient>      </defs>    <rect id="oryx_490DE310-DAEA-40CD-8B6F-FE705956E8DDbg_frame" oryx:anchors="left top" x="0" y="0" width="969" height="68" stroke="none" fill="url(#oryx_490DE310-DAEA-40CD-8B6F-FE705956E8DDtransparent)" class="transparent"/>      <g id="oryx_490DE310-DAEA-40CD-8B6F-FE705956E8DDb" stroke="#777777">    <rect id="oryx_490DE310-DAEA-40CD-8B6F-FE705956E8DDinput" oryx:anchors="left top" oryx:resize="vertical horizontal" x="0" y="0" width="969" height="68" stroke-width="1" fill="#ffffff"/>    <text id="oryx_490DE310-DAEA-40CD-8B6F-FE705956E8DDinput_text" oryx:anchors="left top" oryx:align="middle left" halign="center" valign="middle" font-size="11" x="484" y="34" refX="0" refY="0" stroke="black" fill="gray" font-style="italic" stroke-width="0pt" letter-spacing="0.004333259038099942px" oryx:fontSize="11" transform="rotate(0 484 34)" text-anchor="start"/>    <path id="oryx_490DE310-DAEA-40CD-8B6F-FE705956E8DDinput_dependent" oryx:anchors="right top" d=" M950 11  h10  M955 6  v10  M949 11  Q955 22 961 11  M949 11  Q955 0 961 11 " refX="-20" refY="0" stroke="black" fill="none" original-stroke="black" original-fill="none" display="none"/>   </g>      <g id="oryx_490DE310-DAEA-40CD-8B6F-FE705956E8DDa">    <rect id="oryx_490DE310-DAEA-40CD-8B6F-FE705956E8DDlabel" oryx:anchors="left top" x="1" y="0" width="0" height="24" stroke="none" fill="url(#oryx_490DE310-DAEA-40CD-8B6F-FE705956E8DDtransparent)" class="transparent" display="none"/>     <text id="oryx_490DE310-DAEA-40CD-8B6F-FE705956E8DDlabel_text" oryx:anchors="left top" oryx:align="middle left" font-size="11" x="11" y="12" stroke="black" stroke-width="0pt" letter-spacing="0.007439310773704141px" oryx:fontSize="11" display="none" transform="rotate(0 11 12)" text-anchor="start"/>   </g>      <g id="oryx_490DE310-DAEA-40CD-8B6F-FE705956E8DDc" transform="translate(1,8)">    <path id="oryx_490DE310-DAEA-40CD-8B6F-FE705956E8DDmandatory_Indicator" oryx:anchors="middle left" d=" m15.30275 14.503956000000002  l-2.49912 0  l-0.77223 2.37422  l-0.77227 -2.37422  l-2.49912 0  l2.02183 -1.46721  l-0.77229 -2.37417  l2.02184 1.46732  l2.02183 -1.46732  l-0.77232 2.37417  l2.02184 1.46721  z" stroke="#ff0000" fill="#ff0000" display="none" style="cursor:pointer" original-stroke="#ff0000" original-fill="#ff0000"/>   </g>      <g id="oryx_490DE310-DAEA-40CD-8B6F-FE705956E8DDpin" oryx:anchors="bottom" stroke="#777777" display="none">    <path id="oryx_490DE310-DAEA-40CD-8B6F-FE705956E8DDinput_pin" oryx:anchors="center bottom" x="20" y="20" width="24" height="24" d=" M461.5 66  L464.5 61  L460.5 59  L461.5 57  L464.5 57  L468.5 52  L471.5 54  L468.5 59  L469.5 62  L468.5 64  L464.5 61  L461.5 66 " fill="url(#oryx_490DE310-DAEA-40CD-8B6F-FE705956E8DDtransparent)" class="transparent"/>   </g>      <a id="oryx_490DE310-DAEA-40CD-8B6F-FE705956E8DDu" target="FORM_MODEL-e25d97ca-56ab-4eda-b3bb-ad27fdb5dec8" style="cursor:pointer;" display="none" stroke="#777777" xlink:href="">     <g id="oryx_490DE310-DAEA-40CD-8B6F-FE705956E8DDbg" oryx:anchors="bottom">     <path id="oryx_490DE310-DAEA-40CD-8B6F-FE705956E8DDinput_u" oryx:anchors="center bottom" x="0" y="0" width="24" height="24" d=" M478.5 56  L490.5 56  L490.5 68  L478.5 68  z M484.5 57  v10  M479.5 62  h10 " fill="url(#oryx_490DE310-DAEA-40CD-8B6F-FE705956E8DDtransparent)" class="transparent" display="none"/>     <text id="oryx_490DE310-DAEA-40CD-8B6F-FE705956E8DDinput_u_text" text-decoration="underline" style="cursor:pointer;" font-size="11" x="484" y="73" refX="0" refY="0" fill="blue" font-style="italic" display="inherit" stroke-width="0pt" letter-spacing="0.006863948048949851px" oryx:fontSize="11" transform="rotate(0 484 73)" text-anchor="start"><tspan dy="0" x="484" y="73" style="cursor:pointer">Get Applicant Form</tspan></text>    </g>   </a>   </g></g><g class="children" style="overflow:hidden"/><g class="edge"/><path id="warningId-oryx_490DE310-DAEA-40CD-8B6F-FE705956E8DD" class="validationError" title="" stroke-width="1" stroke="red" fill="white" d="M5,-5 L20,-5 L12,-20 z M12,-15 L12,-10 M12,-9 L12,-7" line-captions="round" style="cursor:pointer" data-html="true" display="none"/></g><g class="controls"><g class="dockers"/><g class="magnets" transform="translate(15, 171)"><g pointer-events="all" display="none" transform="translate(476.5, 26)"><circle cx="8" cy="8" r="4" stroke="none" fill="red" fill-opacity="0.3"/></g></g></g></g><g id="svg-text1"><g class="stencils" transform="translate(15, 264)"><g class="me"><g oryx:minimumSize="20 26" id="oryx_139416D5-C600-4497-8C75-52AE9397DAE7" title="cloud-text">   <defs id="oryx_139416D5-C600-4497-8C75-52AE9397DAE7_oryx_139416D5-C600-4497-8C75-52AE9397DAE7_2">           <radialGradient id="oryx_139416D5-C600-4497-8C75-52AE9397DAE7transparent" cx="10%" cy="10%" r="100%" fx="10%" fy="10%">     <stop offset="0%" stop-color="#ffffff" stop-opacity="0" id="oryx_139416D5-C600-4497-8C75-52AE9397DAE7_oryx_139416D5-C600-4497-8C75-52AE9397DAE7_3"/>     <stop offset="100%" stop-color="#ffffff" stop-opacity="0" id="oryx_139416D5-C600-4497-8C75-52AE9397DAE7_oryx_139416D5-C600-4497-8C75-52AE9397DAE7_4"/>      </radialGradient>     </defs>     <rect id="oryx_139416D5-C600-4497-8C75-52AE9397DAE7bg_frame" oryx:anchors="left top" x="0" y="0" width="969" height="48" stroke="none" fill="url(#oryx_139416D5-C600-4497-8C75-52AE9397DAE7transparent)" class="transparent"/>    <g id="oryx_139416D5-C600-4497-8C75-52AE9397DAE7a">    <rect id="oryx_139416D5-C600-4497-8C75-52AE9397DAE7label" oryx:anchors="left top" x="0" y="0" width="964" height="24" stroke="none" fill="url(#oryx_139416D5-C600-4497-8C75-52AE9397DAE7transparent)" class="transparent"/>    <text id="oryx_139416D5-C600-4497-8C75-52AE9397DAE7label_text" oryx:anchors="left top" font-size="11" x="5" y="12" oryx:align="middle left" stroke="black" stroke-width="0pt" letter-spacing="0.006699043743578837px" oryx:fontSize="11" transform="rotate(0 5 12)" text-anchor="start"><tspan dy="4" x="5" y="12">Review Comments</tspan></text>   </g>      <g id="oryx_139416D5-C600-4497-8C75-52AE9397DAE7b" stroke="#000000">    <rect id="oryx_139416D5-C600-4497-8C75-52AE9397DAE7input" oryx:anchors="left top" style="fill:white;" x="0" y="24" height="24" width="969"/>    <text id="oryx_139416D5-C600-4497-8C75-52AE9397DAE7input_text" oryx:anchors="left top" oryx:align="middle left" font-size="11" x="5" y="36" stroke="black" fill="gray" font-style="italic" stroke-width="0pt" letter-spacing="0.003484446941059736px" oryx:fontSize="11" transform="rotate(0 5 36)" text-anchor="start"><tspan dy="4" x="5" y="36">{{reviewComments}}</tspan></text>   </g>        <g id="oryx_139416D5-C600-4497-8C75-52AE9397DAE7c" transform="translate(1,8)">    <path id="oryx_139416D5-C600-4497-8C75-52AE9397DAE7mandatory_Indicator" oryx:anchors="middle left" d=" m14.30275 21.434447692307693  l-2.49912 0  l-0.77223 2.37422  l-0.77227 -2.37422  l-2.49912 0  l2.02183 -1.46721  l-0.77229 -2.37417  l2.02184 1.46732  l2.02183 -1.46732  l-0.77232 2.37417  l2.02184 1.46721  z" stroke="#ff0000" fill="#ff0000" display="none" style="cursor:pointer" original-stroke="#ff0000" original-fill="#ff0000"/>   </g>    <g id="oryx_139416D5-C600-4497-8C75-52AE9397DAE7d">    <path id="oryx_139416D5-C600-4497-8C75-52AE9397DAE7feedback_Indicator" oryx:anchors="left top" d="M300,15 320,15 310,0 Z M310 4 L310 10 Z M310 11 L310 13 Z" stroke="black" fill="#ff0000" display="none"/>   </g>      <g id="oryx_139416D5-C600-4497-8C75-52AE9397DAE7e">    <rect id="oryx_139416D5-C600-4497-8C75-52AE9397DAE7desc" oryx:anchors="left top" stroke="none" fill="url(#oryx_139416D5-C600-4497-8C75-52AE9397DAE7transparent)" x="0" y="0" height="24" width="969" display="none" class="transparent"/>    <text id="oryx_139416D5-C600-4497-8C75-52AE9397DAE7desc_text" oryx:anchors="left top" oryx:align="middle left" font-size="11" x="0" y="12" stroke="black" fill="gray" font-style="italic" display="none" stroke-width="0pt" letter-spacing="0.0032084423068354712px" oryx:fontSize="11" transform="rotate(0 0 12)" text-anchor="start"/>   </g>     </g></g><g class="children" style="overflow:hidden"/><g class="edge"/><path id="warningId-oryx_139416D5-C600-4497-8C75-52AE9397DAE7" class="validationError" title="" stroke-width="1" stroke="red" fill="white" d="M5,-5 L20,-5 L12,-20 z M12,-15 L12,-10 M12,-9 L12,-7" line-captions="round" style="cursor:pointer" data-html="true" display="none"/></g><g class="controls"><g class="dockers"/><g class="magnets" transform="translate(15, 264)"><g pointer-events="all" display="none" transform="translate(476.5, 16)"><circle cx="8" cy="8" r="4" stroke="none" fill="red" fill-opacity="0.3"/></g></g></g></g><g id="svg-user-auto-complete2"><g class="stencils" transform="translate(15, 337)"><g class="me"><g oryx:minimumSize="25 26" id="oryx_A299B20F-6ADF-457B-9093-C835245998B9" title="user-auto-complete">   <defs id="oryx_A299B20F-6ADF-457B-9093-C835245998B9_oryx_A299B20F-6ADF-457B-9093-C835245998B9_2">       <marker id="oryx_A299B20F-6ADF-457B-9093-C835245998B9search_marker" refX="25" refY="0" markerWidth="20" markerHeight="24">         <path d="M1 1 L1 23 Z M7 5 A 4 4 0 0 0 16 16 M7 5 A 4 4 0 0 1 16 16 M 16 16 L 22 22 Z M 16 15 L 22 21 Z" oryx:anchors="left top" fill="none" id="oryx_A299B20F-6ADF-457B-9093-C835245998B9_oryx_A299B20F-6ADF-457B-9093-C835245998B9_3"/>    </marker>    <radialGradient id="oryx_A299B20F-6ADF-457B-9093-C835245998B9transparent" cx="10%" cy="10%" r="100%" fx="10%" fy="10%">     <stop offset="0%" stop-color="#ffffff" stop-opacity="0" id="oryx_A299B20F-6ADF-457B-9093-C835245998B9_oryx_A299B20F-6ADF-457B-9093-C835245998B9_4"/>     <stop offset="100%" stop-color="#ffffff" stop-opacity="0" id="oryx_A299B20F-6ADF-457B-9093-C835245998B9_oryx_A299B20F-6ADF-457B-9093-C835245998B9_5"/>       </radialGradient>      </defs>      <rect id="oryx_A299B20F-6ADF-457B-9093-C835245998B9bg_frame" oryx:anchors="left top" x="0" y="0" width="969" height="48" stroke="none" fill="url(#oryx_A299B20F-6ADF-457B-9093-C835245998B9transparent)" class="transparent"/>    <g id="oryx_A299B20F-6ADF-457B-9093-C835245998B9a">    <rect id="oryx_A299B20F-6ADF-457B-9093-C835245998B9label" oryx:anchors="left top" x="0" y="0" width="964" height="24" stroke="none" fill="url(#oryx_A299B20F-6ADF-457B-9093-C835245998B9transparent)" class="transparent"/>    <text id="oryx_A299B20F-6ADF-457B-9093-C835245998B9label_text" oryx:anchors="left top" oryx:align="middle left" font-size="11" x="5" y="12" stroke="black" stroke-width="0pt" letter-spacing="0.00591054705818598px" oryx:fontSize="11" transform="rotate(0 5 12)" text-anchor="start"><tspan dy="4" x="5" y="12">Manager</tspan></text>   </g>      <g id="oryx_A299B20F-6ADF-457B-9093-C835245998B9b">       <path id="oryx_A299B20F-6ADF-457B-9093-C835245998B9input" oryx:anchors="left top" d=" M969 24  L969 48  L0 48  L0 24  L969 24  z" marker-end="url(#oryx_A299B20F-6ADF-457B-9093-C835245998B9search_marker)" fill="none" style="opacity:0.9999;"/>             <text id="oryx_A299B20F-6ADF-457B-9093-C835245998B9input_text" oryx:anchors="left top" oryx:align="middle left" font-size="11" x="5" y="36" stroke="black" fill="gray" font-style="italic" stroke-width="0pt" letter-spacing="0.00031465818603990456px" oryx:fontSize="11" transform="rotate(0 5 36)" text-anchor="start"><tspan dy="4" x="5" y="36">{{manager}}</tspan></text>   </g>      <g id="oryx_A299B20F-6ADF-457B-9093-C835245998B9c" transform="translate(1,8)">    <path id="oryx_A299B20F-6ADF-457B-9093-C835245998B9mandatory_Indicator" oryx:anchors="middle left" d=" m14.30275 21.434447692307693  l-2.49912 0  l-0.77223 2.37422  l-0.77227 -2.37422  l-2.49912 0  l2.02183 -1.46721  l-0.77229 -2.37417  l2.02184 1.46732  l2.02183 -1.46732  l-0.77232 2.37417  l2.02184 1.46721  z" stroke="#ff0000" fill="#ff0000" display="none" style="cursor:pointer" original-stroke="#ff0000" original-fill="#ff0000"/>   </g>      <g id="oryx_A299B20F-6ADF-457B-9093-C835245998B9d">    <path id="oryx_A299B20F-6ADF-457B-9093-C835245998B9feedback_Indicator" oryx:anchors="left top" d="M300,15 320,15 310,0 Z M310 4 L310 10 Z M310 11 L310 13 Z" stroke="black" fill="#ff0000" display="none"/>   </g>        <g id="oryx_A299B20F-6ADF-457B-9093-C835245998B9e">    <rect id="oryx_A299B20F-6ADF-457B-9093-C835245998B9desc" oryx:anchors="left top" stroke="none" fill="url(#oryx_A299B20F-6ADF-457B-9093-C835245998B9transparent)" x="0" y="0" height="24" width="969" display="none" class="transparent"/>    <text id="oryx_A299B20F-6ADF-457B-9093-C835245998B9desc_text" oryx:anchors="left top" oryx:align="middle left" font-size="11" x="0" y="12" stroke="black" fill="gray" font-style="italic" display="none" stroke-width="0pt" letter-spacing="0.0006001545527695585px" oryx:fontSize="11" transform="rotate(0 0 12)" text-anchor="start"/>   </g>       </g></g><g class="children" style="overflow:hidden"/><g class="edge"/><path id="warningId-oryx_A299B20F-6ADF-457B-9093-C835245998B9" class="validationError" title="" stroke-width="1" stroke="red" fill="white" d="M5,-5 L20,-5 L12,-20 z M12,-15 L12,-10 M12,-9 L12,-7" line-captions="round" style="cursor:pointer" data-html="true" display="none"/></g><g class="controls"><g class="dockers"/><g class="magnets" transform="translate(15, 337)"><g pointer-events="all" display="none" transform="translate(476.5, 16)"><circle cx="8" cy="8" r="4" stroke="none" fill="red" fill-opacity="0.3"/></g></g></g></g></g><g class="edge"/><g class="panelcell" display="none"><rect x="0" y="0" stroke-width="2" stroke="#00ff00" fill="none" pointer-events="none"/></g><path id="warningId-oryx_F8C6706C-32CA-4293-9E05-FCDC3936AD8A" class="validationError" title="" stroke-width="1" stroke="red" fill="white" d="M5,-5 L20,-5 L12,-20 z M12,-15 L12,-10 M12,-9 L12,-7" line-captions="round" style="cursor:pointer" data-html="true" display="none"/></g><g class="controls"><g class="dockers"/><g class="magnets" transform="translate(50, 50)"><g pointer-events="all" display="none" transform="translate(491.5000000000001, 197)"><circle cx="8" cy="8" r="4" stroke="none" fill="red" fill-opacity="0.3"/></g></g></g></g></g><g class="edge"/></g></g></svg>